<svg version="1.1" width="60" height="60" viewBox="0 0 100 100" xmlns="http://www.w3.org/2000/svg">
 <path d="m95.256 15.244c-3.064-3.0643-7.1374-4.7512-11.471-4.7512-4.3182 0-8.3788 1.6761-11.439 4.7199-0.46162 0.44141-2.6768 2.6976-3.2519 5.8094-0.65623 0.20875-1.3027 0.45623-1.9327 0.75051-0.45657-3.2822-1.9135-6.4539-4.3859-9.0148-3.0104-3.1168-7.0542-4.8754-11.387-4.9505-4.3172-0.08047-8.4074 1.5296-11.52 4.5202-0.47003 0.434-2.7178 2.6461-3.3498 5.7407-2.4508 0.733-4.7101 2.0428-6.6034 3.8707-2.5044 2.4192-4.1492 5.5559-4.7242 8.9566-3.5434 1.0108-6.7936 2.5148-9.5495 4.462-5.5202 3.901-8.4778 9.0977-8.3273 14.632 0.02088 0.77003 0.10168 1.4832 0.23232 2.1475h-4.3923c-1.7424 0-3.1549 1.4124-3.1549 3.1549v17.193c0 1.7424 1.4125 3.1549 3.1549 3.1549 1.097 0 2.0609-0.063 2.9236-0.16969l4.4727 14.501c0.40774 1.3229 1.6303 2.2246 3.0145 2.2246h67.67c1.3842 0 2.6067-0.90202 3.0148-2.2246l4.4731-14.501c0.86196 0.10673 1.8263 0.16969 2.9232 0.16969 1.7421 0 3.1546-1.4125 3.1546-3.1549v-17.193c0-1.7424-1.4125-3.1549-3.1546-3.1549h-10.34l13.95-13.951c6.3249-6.3256 6.3249-16.618-3.4e-4 -22.942zm-51.075 1.6892c1.9047-1.8397 4.4623-2.867 7.098-2.8175 2.6475 0.0461 5.1182 1.1202 6.9579 3.0249 2.8909 2.994 3.5145 7.3529 1.9131 10.939-0.26095 0.43131-0.50068 0.87408-0.71987 1.3263-0.40303 0.62425-0.88081 1.2135-1.4377 1.7512l-3.3848 3.269c-5.134-3.2899-12.067-5.2091-19.706-5.0014-0.93468 0.0249-1.8623 0.0832-2.7801 0.1707 0.51347-1.1593 1.2475-2.2205 2.1774-3.1185 1.9047-1.8391 4.4135-2.8242 7.0593-2.7808 2.6468 0.0461 5.1178 1.1205 6.9572 3.0253 1.2104 1.2539 3.2074 1.2879 4.4606 0.0778 1.2535-1.2101 1.2886-3.2074 0.0781-4.461-2.5074-2.5966-5.733-4.2461-9.2444-4.7697 0.19731-0.25421 0.42896-0.50235 0.57138-0.63501zm-30.56 32.885c-0.09125-3.3582 1.9195-6.6636 5.661-9.3081 1.4542-1.0273 3.095-1.9 4.8717-2.6108-0.29394 1.104-0.44478 2.3347-0.40774 3.7037 0.0468 1.7131 1.4495 3.0694 3.1522 3.0694 0.02895 0 0.05825-3.4e-4 0.08721-1e-3 1.7414-0.0472 3.1152-1.4976 3.0677-3.2391-0.12728-4.6815 3.7909-5.2498 5.034-5.3104h0.02393c1.2808 0 5.1562 0.38889 5.2822 5.0293 0.04646 1.7128 1.4495 3.0697 3.1519 3.0697 0.02861 0 0.05791-1e-3 0.08721-1e-3 1.7414-0.0474 3.1152-1.4973 3.068-3.2391-0.03603-1.3185-0.24646-2.5451-0.61078-3.6717 6.5259 2.1973 11.035 6.4495 11.167 11.325 0.0465 1.7195-0.47509 2.4717-0.87172 2.8882-0.21313 0.22357-0.46835 0.42794-0.76061 0.61515h-41.393c-0.47677-0.69045-0.58788-1.481-0.61044-2.3181zm65.287 36.068h-63.014l-3.7717-12.228c1.5721-0.66633 2.9505-1.1731 5.7825-1.1731 3.0411 0 4.4064 0.58384 6.1347 1.3236 2.0071 0.85859 4.2822 1.8313 8.6158 1.8313 4.3337 0 6.6081-0.97307 8.6152-1.8313 1.7276-0.73939 3.0926-1.3236 6.133-1.3236 3.0407 0 4.4057 0.58384 6.1337 1.3236 2.0067 0.85859 4.2815 1.8313 8.6148 1.8313 4.3337 0 6.6081-0.97307 8.6152-1.8313 1.728-0.73939 3.0923-1.3236 6.133-1.3236 2.8306 0 4.2094 0.50674 5.7805 1.1731zm9.5842-16.846c-1.1266-0.24074-1.9933-0.61145-2.9781-1.033-2.0067-0.85859-4.2812-1.8316-8.6148-1.8316-4.3333 0-6.6081 0.9734-8.6148 1.8316-1.728 0.73906-3.0929 1.3232-6.1333 1.3232-3.0404 0-4.4054-0.58384-6.133-1.3232-2.0071-0.85859-4.2815-1.8316-8.6155-1.8316-4.3333 0-6.6081 0.9734-8.6152 1.8316-1.7276 0.73906-3.0926 1.3232-6.133 1.3232-3.0411 0-4.4061-0.58384-6.1344-1.3232-2.0071-0.85859-4.2818-1.8316-8.6162-1.8316-4.3337 0-6.6088 0.97306-8.6155 1.8316-0.98552 0.42155-1.8525 0.7926-2.9798 1.0333v-10.595h82.183v10.594zm2.3024-35.316-18.411 18.412h-9.2764c0.33603-1.1209 0.49327-2.3451 0.45691-3.6744-0.0849-3.1253-1.1822-6.0522-3.0697-8.63 0.0899-3e-3 0.17879-7e-3 0.26869-7e-3 2.6478 0 5.1374 1.0313 7.0094 2.9034 1.232 1.2316 3.2293 1.2316 4.4616 0 1.232-1.2316 1.232-3.2296 0-4.4616-2.1751-2.1748-4.8603-3.6522-7.7845-4.328 0.13434-0.5091 0.30673-1.0061 0.51953-1.4855 0.27273-0.44916 0.52188-0.90808 0.74747-1.3761 0.37543-0.57913 0.81112-1.1222 1.3071-1.6182 3.865-3.8653 10.154-3.865 14.019-3.4e-4 1.2323 1.2317 3.2296 1.2317 4.4616 0 1.232-1.232 1.232-3.23 0-4.4616-2.6182-2.6185-5.9168-4.1495-9.3323-4.6 0.19495-0.26162 0.38518-0.47879 0.5266-0.61482 0.0263-0.0249 0.0525-0.0502 0.0785-0.0761 1.872-1.8724 4.3613-2.9034 7.0088-2.9034s5.137 1.0313 7.0091 2.9034c3.8653 3.865 3.8657 10.153 1e-3 14.019z" stroke-width=".3367"/>
</svg>
