<?xml version="1.0" encoding="UTF-8"?>
<svg width="70px" height="59px" viewBox="0 0 70 59" version="1.1" xmlns="http://www.w3.org/2000/svg" xmlns:xlink="http://www.w3.org/1999/xlink">
    <!-- Generator: sketchtool 63.1 (101010) - https://sketch.com -->
    <title>C2FEF418-DE66-4105-BB7A-7DE7CAF90576</title>
    <desc>Created with sketchtool.</desc>
    <g id="Page-1" stroke="none" stroke-width="1" fill="none" fill-rule="evenodd">
        <g id="Covid" transform="translate(-210.000000, -853.000000)" fill="#38B2AC" fill-rule="nonzero" stroke="#38B2AC">
            <g id="Group-20" transform="translate(165.000000, 723.000000)">
                <g id="Group-19" transform="translate(0.000000, 80.000000)">
                    <g id="Group-8">
                        <g id="ico-bakery" transform="translate(46.000000, 51.000000)">
                            <path d="M34.6113211,0.0435809048 L34.9551294,0.0443953039 C37.7206957,0.0923257696 40.3020319,1.21498197 42.2235946,3.20445805 C43.8015611,4.83894163 44.7312759,6.86328938 45.0226683,8.95804817 L45.0226683,8.95804817 L45.2092718,10.2995018 L46.4363614,9.72629161 C46.8381677,9.53859585 47.2505902,9.38100538 47.6691364,9.24786087 C47.8686764,9.18438481 48.0702906,9.12624795 48.2739102,9.07415693 C48.2877129,8.87751327 48.3121608,8.67783221 48.3493415,8.47664693 C48.6990369,6.58444271 50.0531209,5.21907868 50.3334045,4.95106139 C52.3010122,2.99433403 54.8931129,1.92441077 57.6496296,1.92441077 C60.4158134,1.92441077 63.0160855,3.00119522 64.9720366,4.95736129 C66.9909061,6.97612331 67.9999116,9.62808939 67.9999116,12.27987 C67.9999116,14.9317087 66.9910206,17.5838439 64.9722279,19.6028515 L64.9722279,19.6028515 L53.5006238,31.0752862 L63.1529966,31.0752862 C63.4866004,31.0752862 63.7886325,31.2105458 64.0072669,31.4292036 C64.2259291,31.6478891 64.3611785,31.949999 64.3611785,32.2837037 L64.3611785,32.2837037 L64.3611785,44.3189899 C64.3611785,44.6526946 64.2259291,44.9548045 64.0072669,45.17349 C63.7886325,45.3921478 63.4866004,45.5274074 63.1529966,45.5274074 C62.0605636,45.5274074 61.1680062,45.4335191 60.4063995,45.2864389 L60.4063995,45.2864389 L57.0200419,56.264253 C56.9418969,56.5175152 56.7857655,56.7305092 56.5829103,56.8801925 C56.3800013,57.0299155 56.1303474,57.1162963 55.8652189,57.1162963 L55.8652189,57.1162963 L8.4959596,57.1162963 C8.23081042,57.1162963 7.9811254,57.0299607 7.77822146,56.8802247 C7.57550021,56.7306235 7.41950033,56.5177338 7.34140028,56.264344 L7.34140028,56.264344 L3.95534702,45.28669 C3.19194256,45.4336139 2.30025785,45.5274074 1.20841751,45.5274074 C0.874716302,45.5274074 0.572609188,45.3921583 0.353929172,45.1734782 C0.135249155,44.9547982 0,44.6526911 0,44.3189899 L0,44.3189899 L0,32.2837037 C0,31.9500025 0.135249155,31.6478954 0.353929172,31.4292154 C0.572609188,31.2105354 0.874716302,31.0752862 1.20841751,31.0752862 L1.20841751,31.0752862 L5.60025473,31.0752862 C5.44974016,30.6623235 5.33952916,30.2653623 5.26420344,29.8823271 C5.18284632,29.468622 5.13300269,29.0244711 5.1200008,28.5448692 C5.02286163,24.9728859 6.9813961,21.6516301 10.5265009,19.1463794 C12.3680083,17.8452875 14.5410302,16.8432414 16.9084185,16.1679374 C17.1169232,16.1084608 17.3254843,16.0519328 17.5338878,15.9981955 C17.5562232,15.7893964 17.5849541,15.5809175 17.6201084,15.3730378 C17.9872009,13.2022919 19.0372583,11.2001462 20.6356651,9.65610841 C21.8439971,8.48946529 23.2857109,7.65311285 24.8499731,7.18527404 C25.0506615,7.12525224 25.2529944,7.07140758 25.4565552,7.02353206 C25.4740584,6.82710877 25.5022568,6.62783774 25.5432115,6.42729698 C25.9275199,4.54547575 27.3012967,3.20692271 27.5867059,2.94338942 C29.5878438,1.02109717 32.1982966,-0.00699075502 34.9551294,0.0443953039 L34.6113211,0.0435809048 Z M52.83,43.3187542 C50.5079999,43.3187542 49.4645901,43.7605872 48.1423729,44.3263681 C46.8295221,44.88776 45.3418867,45.5271717 42.5062963,45.5271717 C39.6702346,45.5271717 38.182371,44.8876745 36.8692866,44.3258683 C35.549046,43.7606756 34.505156,43.3187542 32.1823569,43.3187542 C29.8598973,43.3187542 28.8160308,43.7608692 27.4946651,44.3263958 C26.181879,44.88776 24.6942436,45.5271717 21.8586532,45.5271717 C19.0223196,45.5271717 17.5342091,44.8876608 16.2208807,44.3258444 C14.9004102,43.7606635 13.856292,43.3187542 11.5332997,43.3187542 C8.88150024,43.3187542 7.89028805,43.8978301 6.26380521,44.5717038 L9.38771795,54.6994613 L54.9736574,54.6994613 L58.0980448,44.571973 C56.4728488,43.8979929 55.4809539,43.3187542 52.83,43.3187542 Z M61.9445791,33.4914141 L2.41612795,33.4914141 L2.41612795,43.0630821 C3.9414434,42.9281681 4.82725003,42.5605639 5.89526137,42.1037307 C7.2084388,41.5418847 8.69652903,40.9021549 11.5328283,40.9021549 C14.3696127,40.9021549 15.8575045,41.5418999 17.1708365,42.1037179 C18.4914217,42.6686906 19.5352565,43.1105724 21.8581818,43.1105724 C24.1801035,43.1105724 25.2239754,42.6686637 26.5461602,42.103044 C27.8589912,41.5416605 29.3468226,40.9021549 32.1818855,40.9021549 C35.0182592,40.9021549 36.5059125,41.5418239 37.8194223,42.1037179 C39.1394243,42.6686612 40.1833056,43.1105724 42.5058249,43.1105724 C44.8275174,43.1105724 45.8713985,42.6687485 47.1936032,42.1032303 C48.5064082,41.5417638 49.9942403,40.9021549 52.8295286,40.9021549 C55.6658137,40.9021549 57.1534539,41.5418877 58.4665383,42.103694 C59.5322199,42.5598422 60.419316,42.9279029 61.9445791,43.0630184 L61.9445791,33.4914141 Z M23.5123475,17.8653887 C22.8295943,17.8986821 21.2509188,18.1352295 20.1740937,19.271186 C19.5080372,19.9738174 18.9942833,21.0150629 19.0376084,22.6086915 C19.0467012,22.9422232 18.9196895,23.2478093 18.7070782,23.4722985 C18.4907214,23.7007424 18.1848453,23.8371038 17.8162364,23.8497319 C17.4947239,23.8464259 17.202032,23.7166701 16.9867889,23.5070828 C16.7692074,23.2952186 16.6308678,23.001591 16.6219166,22.6739368 C16.5988463,21.8211718 16.6908509,21.0540215 16.874048,20.3659306 C17.0377782,19.7509578 17.2961073,19.1174142 17.6661546,18.4697172 C16.9565762,18.6588116 16.2449745,18.8966878 15.5362894,19.1801886 C14.2172964,19.7078359 12.999991,20.3568901 11.9205357,21.1194319 C8.96116825,23.211123 7.46375022,25.8487038 7.5352174,28.4790125 C7.56135569,29.448861 7.76343913,30.3311826 8.49819552,31.0748148 L38.2114902,31.0748148 C38.6015379,30.8582169 38.9301381,30.6101571 39.1931948,30.3342177 C39.5693959,29.9391748 40.1239895,29.2518335 40.0792311,27.595446 C40.0272363,25.679711 39.1561913,23.8700952 37.6328721,22.3252348 C36.1607297,20.8322748 34.0708522,19.5853722 31.5817951,18.7472963 C30.8574405,18.5034031 30.1390662,18.3075298 29.4333879,18.1597398 C29.8185855,18.7642611 30.1101636,19.380996 30.311205,20.0027008 C30.5383993,20.7052813 30.6681454,21.4704162 30.6906088,22.2925325 C30.6996283,22.625806 30.5726192,22.9313906 30.3599899,23.1558741 C30.1435648,23.384365 29.8375969,23.5207261 29.4688945,23.5334353 C29.1475149,23.5300946 28.8549357,23.4002368 28.6397541,23.1906641 C28.422195,22.9787758 28.2838048,22.6851678 28.2749184,22.3575958 C28.2317618,20.7672609 27.6644359,19.7563841 26.9622225,19.0907986 C25.8404337,18.027523 24.2740529,17.8642088 23.5123475,17.8653887 Z M57.6493939,4.34124579 C55.5394294,4.34124579 53.552898,5.15645486 51.9950446,6.70600368 C51.8673511,6.8290708 51.6938876,7.02351782 51.5178769,7.2597187 L50.499865,8.62585901 L52.1889626,8.84865205 C54.3687963,9.13617348 56.4741904,10.1130713 58.1452047,11.7843004 C58.3812508,12.0202821 58.4991498,12.3295047 58.4991498,12.6387163 C58.4991498,12.9479979 58.381203,13.2573107 58.1452501,13.4932636 C57.9093893,13.7290599 57.6001374,13.8469865 57.2908796,13.8469865 C56.9815519,13.8469865 56.6722098,13.7290121 56.4361391,13.4930704 C54.8888712,11.9456676 52.855951,11.1713232 50.8227287,11.1713721 C48.7896563,11.1714209 46.7567751,11.9457452 45.209125,13.4935301 C44.8119515,13.8907037 44.4628753,14.3255544 44.1004992,14.899128 C43.956488,15.1978975 43.7974164,15.4908555 43.5640576,15.8909374 C43.3935335,16.2751563 43.2551704,16.6733358 43.1475104,17.0813104 C43.0556604,17.4293736 42.9867661,17.7822625 42.9428911,18.1381738 C43.260121,18.1808385 43.5759189,18.2383792 43.8892563,18.3107877 C45.7553849,18.7420278 47.4685625,19.6854488 48.856517,21.0731884 C49.0924151,21.3090866 49.210362,21.6183994 49.210362,21.927681 C49.210362,22.2368926 49.092463,22.5461152 48.8565589,22.7819548 C48.6205848,23.0178 48.3112427,23.1357744 48.001915,23.1357744 C47.6926572,23.1357744 47.3834053,23.0178478 47.1474478,22.7819548 C45.65461,21.2891169 43.6722265,20.4561077 41.3433332,20.4617538 C40.6486737,20.4634379 39.9852047,20.539587 39.356699,20.6854372 C39.7824271,21.1010143 40.177046,21.5583202 40.5389306,22.0525387 C41.7369744,23.6886826 42.4410177,25.5446923 42.4949138,27.5298666 C42.532081,28.888535 42.2473468,30.069448 41.6581789,31.0748148 L50.0824344,31.0748148 L63.2633422,17.893666 C64.8110621,16.3458112 65.5851978,14.3129847 65.5851978,12.2799597 C65.5851978,10.2469304 64.8106675,8.21416423 63.2628336,6.66646511 C61.7635659,5.16719748 59.7697119,4.34124579 57.6493939,4.34124579 Z M34.9125722,2.46058946 C32.8107405,2.42111879 30.7683656,3.23596933 29.2449701,4.70076524 C29.1184424,4.81882765 28.9118455,5.03831212 28.7366278,5.2640619 L27.6886894,6.61422146 L29.3791262,6.86627144 C31.6200763,7.20040487 33.6782578,8.25359911 35.2783524,9.91063272 C35.5101627,10.1506967 35.6227314,10.4619858 35.6173168,10.7712021 C35.611903,11.0803734 35.4885376,11.3874693 35.2484979,11.6191918 C35.0083316,11.8510987 34.6970181,11.9637637 34.3877476,11.958371 C34.0787214,11.9529827 33.7717624,11.8296853 33.5400641,11.5896729 C32.0667895,10.0640799 30.0877493,9.20362703 27.9679639,9.16668382 C25.8483127,9.13188628 23.8396002,9.92113109 22.3144582,11.3937006 C21.5696819,12.11286 20.9817333,12.9626889 20.570523,13.8910805 C20.3452909,14.399588 20.173144,14.9315242 20.0582247,15.4787124 C20.5664014,15.4017658 21.0740105,15.3397836 21.5797954,15.2915429 C22.1997387,15.2324141 22.8262755,15.1930395 23.4575904,15.1762105 C28.9140225,15.0278296 33.8388014,16.4815569 37.3379355,18.9588441 L40.289272,16.1084984 C40.735326,15.6778162 41.1182117,15.2058747 41.5008304,14.5995583 C41.6408009,14.3108019 41.7938512,14.0280456 42.017971,13.6427438 C42.6684835,12.1860663 42.8606364,10.5700075 42.5892353,9.01821604 C42.3256475,7.51109884 41.6256997,6.06454291 40.4850666,4.88325829 C39.011574,3.35771876 37.032855,2.49753195 34.9125722,2.46058946 Z" id="Shape"></path>
                        </g>
                    </g>
                </g>
            </g>
        </g>
    </g>
</svg>