<?xml version="1.0" encoding="UTF-8"?>
<svg width="30px" height="65px" viewBox="0 0 30 65" version="1.1" xmlns="http://www.w3.org/2000/svg" xmlns:xlink="http://www.w3.org/1999/xlink">
    <!-- Generator: sketchtool 63.1 (101010) - https://sketch.com -->
    <title>E4D0672D-699B-4E48-9DCD-7052638E60FF</title>
    <desc>Created with sketchtool.</desc>
    <g id="Page-1" stroke="none" stroke-width="1" fill="none" fill-rule="evenodd">
        <g id="Covid" transform="translate(-1180.000000, -851.000000)" fill="#38B2AC" fill-rule="nonzero">
            <g id="Group-20" transform="translate(165.000000, 723.000000)">
                <g id="Group-14" transform="translate(950.000000, 80.000000)">
                    <g id="Group-13">
                        <g id="ico-beverages" transform="translate(65.000000, 48.000000)">
                            <path d="M18.7577653,38.3931928 C24.1727113,34.874213 27.8382133,29.194645 28.8143737,22.8108891 C29.2642308,19.8701569 29.1353502,16.9132532 28.4316522,14.0225052 L25.2512902,0.958028953 C25.1145689,0.395462609 24.6108075,0 24.0320697,0 L5.04447562,0 C4.46573785,0 3.96246649,0.395462609 3.82574519,0.958028953 L0.645383135,14.0225052 C-0.0583148353,16.9132532 -0.187195484,19.8701569 0.262171629,22.8113793 C1.23833204,29.195135 4.90383401,34.874213 10.31927,38.3931928 L13.2840143,40.3195416 L13.2840143,56.9730735 L3.52143003,61.8538756 C3.00100722,62.1140869 2.72805477,62.698215 2.86183576,63.2642117 C2.99561675,63.8306983 3.5008484,64.2305713 4.08252635,64.2305713 L24.994019,64.2305713 C25.5756969,64.2305713 26.0814186,63.8306983 26.2147096,63.2642117 C26.3484906,62.698215 26.0755381,62.1145769 25.5551152,61.8538756 L15.793021,56.9730735 L15.793021,40.3195416 L18.7577653,38.3931928 Z M6.03043672,2.50900669 L23.0465986,2.50900669 L25.6163702,13.0649663 L3.46066515,13.0649663 L6.03043672,2.50900669 Z M2.74275592,22.4315979 C2.39237702,20.1401692 2.43697073,17.8379595 2.87408673,15.5739729 L26.2024586,15.5739729 C26.6400646,17.8379595 26.6846583,20.1401692 26.3342794,22.4315979 C25.4664179,28.1092056 22.2061794,33.1600517 17.3905526,36.2894496 L14.5385177,38.1427822 L11.6864827,36.2894496 C6.87036598,33.1600517 3.61061744,28.1092056 2.74275592,22.4315979 Z M9.39701412,61.7215646 L14.5385177,59.1508128 L19.6800212,61.7215646 L9.39701412,61.7215646 Z" id="Shape"></path>
                            <path d="M17.2788234,32.9120912 C17.5748078,32.9120912 17.8717723,32.8077127 18.1104219,32.5965053 C20.8139746,30.1997179 22.6957296,27.0791408 23.5528103,23.5714318 C23.7174639,22.8986064 23.3053399,22.2194105 22.6320244,22.0552469 C21.9587089,21.8910834 21.280003,22.3032073 21.1158394,22.9760328 C20.3802889,25.9853707 18.765606,28.6629513 16.4462448,30.7186707 C15.9277822,31.1783285 15.8802483,31.9712137 16.3399061,32.4896765 C16.5873764,32.7694896 16.9323648,32.9120912 17.2788234,32.9120912 Z" id="Path"></path>
                            <path d="M22.7555146,19.7535273 C23.0853117,19.7535273 23.4087384,19.6202364 23.6424877,19.386977 C23.8757468,19.1527378 24.0100179,18.8302912 24.0100179,18.499024 C24.0100179,18.1687367 23.8757468,17.8453101 23.6424877,17.6120509 C23.4087384,17.3787917 23.0853117,17.2445207 22.7555146,17.2445207 C22.4252273,17.2445207 22.1018008,17.3787917 21.8685415,17.6120509 C21.6352824,17.8453101 21.5010112,18.1687367 21.5010112,18.499024 C21.5010112,18.8302912 21.6352824,19.1527378 21.8685415,19.386977 C22.1018008,19.6202364 22.4252273,19.7535273 22.7555146,19.7535273 Z" id="Path"></path>
                        </g>
                    </g>
                </g>
            </g>
        </g>
    </g>
</svg>