<svg version="1.1" width="60" height="60" viewBox="0 0 100 100" xmlns="http://www.w3.org/2000/svg">
 <g transform="matrix(.99999 0 0 .99999 -2.4995 -2.4996)">
  <path d="m18.922 55.932c-1.789-0.471-4.439 3.857-5.957 9.652-1.518 5.798-1.33 10.867 0.457 11.335 1.752 0.46 4.402-3.866 5.92-9.663 1.515-5.797 1.33-10.867-0.42-11.324z"/>
  <path d="m51.258 58.297c-12.848-17.633-28.145-18.169-28.145-18.169-6.58-1.724-14.852 8.547-18.609 22.907-0.029 0.105-0.047 0.21-0.076 0.314-0.029 0.107-0.057 0.205-0.086 0.309-3.764 14.36-1.594 27.366 4.988 29.09 0 0 13.598 7.03 33.438-2.039 19.25-8.804 27.148-6.56 29.834-5.856l0.891-3.415 0.896-3.41c-2.684-0.704-10.668-2.622-23.131-19.731zm-24.901 10.795c-3.4 12.966-10.684 22.285-16.287 20.818-5.729-1.5-7.518-13.199-4.121-26.162 3.4-12.963 10.684-22.285 16.416-20.782 5.604 1.467 7.389 13.163 3.992 26.126z"/>
  <path d="m86.395 79.597c-1.084-1.991-3.588-2.733-5.58-1.647-0.602 0.326-1.094 0.799-1.455 1.363l-5.051-1.332-1.809 6.855 5.047 1.328c0.072 0.461 0.225 0.908 0.453 1.328 1.088 1.994 3.592 2.73 5.58 1.644 1.674-0.909 2.465-2.819 2.031-4.583 1.323-1.255 1.694-3.282 0.784-4.956zm-1.532 0.835c0.629 1.149 0.199 2.59-0.949 3.217-0.215 0.114-0.439 0.162-0.664 0.205 0.162 0.164 0.33 0.322 0.445 0.534 0.629 1.149 0.199 2.595-0.949 3.22-1.145 0.622-2.586 0.199-3.215-0.952-0.314-0.581-0.363-1.233-0.188-1.819l-4.711-1.242 0.916-3.482 4.906 1.298c0.059-0.782 0.453-1.528 1.193-1.927 1.146-0.629 2.591-0.207 3.216 0.948z"/>
  <path d="m97.172 39.377c-1.975-2.666-4.711-5.193-8.607-7.125-21.835-10.851-38.065-8.262-38.065-8.262s0.258-9.447-4.217-14.336c0 0 0.453 1.495 0.105 2.142-0.344 0.648-3.834 5.241-3.73 7.38 0.105 2.142-0.758 3.761-0.758 3.761s-0.867 1.621-2.705 2.721c-1.836 1.104-3.709 6.563-4.059 7.206-0.348 0.648-1.836 1.104-1.836 1.104 6.549 1.002 14.252-4.467 14.252-4.467s7.039 14.658 28.029 27.062c3.996 2.358 7.582 3.474 10.75 3.844-0.254-3.899 0.582-8.194 2.756-12.257 2.048-3.839 4.929-6.803 8.085-8.773z"/>
  <path d="m64.697 22.941c4.908 0.604 16.346 2.502 25.068 7.762-1.025-3.512-5.57-12.209-25.068-7.762z"/>
  <path d="m61.145 52.877c-0.82 2.516-1.105 4.087-1.105 4.087s5.779 0.601 9.682-1.616c-2.471-1.903-5.357-4.047-6.449-5.092-0.779 0.455-1.679 1.252-2.128 2.621z"/>
  <path d="m98.518 41.01c-2.961 1.832-5.68 4.619-7.617 8.247-2.07 3.884-2.855 7.977-2.574 11.646 9.051 0.38 14.154-5.456 14.154-5.456s0.529-7.447-3.963-14.437zm-1.403 8.513c-1.178 0-2.137-0.956-2.137-2.137 0-1.18 0.959-2.137 2.137-2.137 1.184 0 2.137 0.957 2.137 2.137 0 1.181-0.953 2.137-2.137 2.137z"/>
 </g>
</svg>
