<?xml version="1.0" encoding="UTF-8"?>
<svg width="66px" height="66px" viewBox="0 0 66 66" version="1.1" xmlns="http://www.w3.org/2000/svg" xmlns:xlink="http://www.w3.org/1999/xlink">
    <!-- Generator: Sketch 63.1 (92452) - https://sketch.com -->
    <title>ico-butchery</title>
    <desc>Created with Sketch.</desc>
    <g id="Page-1" stroke="none" stroke-width="1" fill="none" fill-rule="evenodd">
        <g id="Covid" transform="translate(-403.000000, -808.000000)" fill="#38B2AC" fill-rule="nonzero" stroke="#38B2AC" stroke-width="0.5">
            <g id="Group-20" transform="translate(211.000000, 708.000000)">
                <g id="Group-9" transform="translate(192.000000, 100.000000)">
                    <g id="ico-butchery" transform="translate(32.500000, 33.000000) rotate(-90.000000) translate(-32.500000, -33.000000) translate(-0.500000, 0.500000)">
                        <path d="M49.2475416,15.8414488 C51.798975,18.3928823 53.2050233,21.1236482 52.388114,21.9405575 C51.5712047,22.7574668 48.8404387,21.3514186 46.2890052,18.7999851 C43.7375718,16.2485517 42.3315236,13.5177857 43.1484329,12.7008764 C43.9653421,11.8839671 46.6958828,13.2900153 49.2475416,15.8414488 Z" id="Path"></path>
                        <path d="M36.9737169,0.391198109 C42.0497927,0.391198109 49.0172801,4.32389492 55.1998348,10.5064496 C59.2239754,14.5303704 62.3691966,19.0044604 64.0404947,23.1140946 C64.9401923,25.3260887 65.3676241,27.3390013 65.3015911,29.0787406 C65.2406928,30.6831971 64.7541667,32.0431641 63.8074451,33.0687548 C62.9094394,34.2370747 53.398727,46.2030789 36.8176159,47.9351057 C32.9641816,48.3377021 30.2019871,49.3712738 28.2263301,50.5556186 C24.0709527,53.0466378 23.2781239,56.2306881 23.2653933,56.2807541 C23.2066708,56.514396 23.0874345,56.7231501 22.9248485,56.8895483 C22.762086,57.0561272 22.5558966,57.1802565 22.3248865,57.244122 C21.6170544,57.2926217 21.2750901,57.1549154 21.0205899,56.9005467 L21.0205899,56.9005467 L18.3243098,54.2042666 L15.6624617,56.8657152 C16.3075556,57.9864329 16.5062211,59.2945219 16.2621532,60.530685 C16.0642253,61.5331562 15.5742893,62.488303 14.7933735,63.2579449 C13.8011357,64.2366452 12.4895426,64.7746023 11.1043058,64.7746023 C9.65250693,64.7633347 8.32896218,64.2062992 7.33850755,63.1992192 C6.45411502,62.300144 5.95820478,61.1615507 5.84951613,59.9940057 C5.82363756,59.7160155 5.81963662,59.4355863 5.83790759,59.15554 C5.56026932,59.1700685 5.28033034,59.1624413 5.00023999,59.1322354 C3.79482884,59.0022401 2.68131738,58.4642696 1.81990082,57.5877908 C0.800479561,56.5516797 0.297800782,55.1968383 0.308239208,53.8462566 C0.319005346,52.4957775 0.842820703,51.1490244 1.87886151,50.1285335 C2.85323444,49.1676804 4.15429634,48.6422404 5.53649197,48.6422135 C6.55983835,48.6498892 7.49529234,48.9200865 8.3221311,49.4095196 L8.3221311,49.4095196 L10.9259596,46.8056911 L9.01084521,44.8905767 C8.83130323,44.7109664 8.70238213,44.4908474 8.638169,44.2539329 C8.57890692,44.0352853 8.57539687,43.8020814 8.64088304,43.5769172 C8.70963236,43.3408823 8.83352595,43.1326227 9.00235709,42.9711659 C9.16425646,42.8163381 9.3671222,42.7056482 9.59683085,42.6531835 C9.97458916,42.5432049 12.9753372,41.6162174 15.2879285,37.605123 C16.441694,35.6039643 17.4305267,32.8084414 17.7693463,28.9117308 C19.1955299,12.5041383 31.123491,3.04547944 32.5320077,1.98326881 C33.6963102,0.903000627 35.2073545,0.391198109 36.9737169,0.391198109 Z M12.8194986,48.6990048 L9.38466023,52.1335627 C9.1323831,52.3858399 8.78989959,52.52544 8.42830199,52.52544 C8.07518131,52.5238711 7.73335864,52.3797237 7.48281132,52.1250992 C6.98904493,51.6226821 6.29442282,51.325032 5.55262042,51.319478 C5.13405426,51.3194512 4.37788247,51.4244958 3.7582023,52.0351585 C3.24773943,52.5379653 2.98891655,53.201181 2.98347825,53.8664344 C2.97820583,54.5321483 3.22668726,55.1994928 3.72908336,55.710087 C4.21357,56.2030986 4.85909517,56.4799704 5.57050808,56.4853087 C6.26251117,56.4853356 6.90789864,56.2212942 7.39732186,55.7397189 C7.66096501,55.4801531 8.00453987,55.3521065 8.34709802,55.3548179 C8.68965096,55.3575292 9.03115014,55.4909948 9.29045238,55.7545027 C9.5474051,56.0155319 9.67545767,56.355037 9.67532623,56.6942938 C9.67519476,57.0403154 9.5415935,57.3861793 9.27564825,57.6480493 C8.76555952,58.1502932 8.50685392,58.8134253 8.50194547,59.478972 C8.49704106,60.1439719 8.74554222,60.8109002 9.24795844,61.3213337 C9.73387959,61.8158115 10.3835338,62.0910458 11.0758548,62.0965764 C11.7736761,62.1021098 12.4202448,61.8367047 12.9134359,61.3510133 C13.4237552,60.8478241 13.682357,60.1848077 13.6877108,59.5197734 C13.6930689,58.8542184 13.4447903,58.1871511 12.9429039,57.6768879 C12.6848682,57.4147083 12.5567987,57.0732411 12.558177,56.7322792 C12.5595555,56.3913022 12.6903978,56.050829 12.9504002,55.7908266 L16.4312797,52.3107859 L12.8194986,48.6990048 Z M30.8381762,7.15093655 C30.3521458,7.65622764 29.9007189,8.15241502 29.4836731,8.63175134 C25.8238561,12.8382035 21.2450151,19.846408 20.4370654,29.1436143 C19.6036908,38.7241734 15.089061,42.8011463 12.2816526,44.3743612 L21.5310581,53.6237667 C23.0887258,50.8111018 27.1116265,46.2564353 36.53933,45.2714262 C45.8075788,44.3034363 52.7795636,39.8124096 56.9909289,36.2166706 C57.47648,35.8020984 57.9795368,35.3531481 58.4932998,34.8694611 C57.8246441,34.7955603 57.1847402,34.6914888 56.5775622,34.5565885 C51.856155,33.5076059 46.1314638,29.9319891 40.9526358,24.7531611 C36.9284769,20.7290021 33.7834663,16.2551091 32.1119588,12.1455009 C31.672927,11.0659286 31.3512088,10.0347627 31.1389634,9.05650413 C31.0087713,8.45643707 30.9078164,7.82118274 30.8381762,7.15093655 Z M36.9737169,3.06885953 C35.7450553,3.06885953 34.8986279,3.40864738 34.3771906,3.9300847 C33.7767395,4.53053572 33.4287643,5.57548187 33.5279198,7.01544573 C33.6069772,8.16353838 33.9591859,9.57979194 34.5925869,11.1367307 C36.1196386,14.8914271 39.0444156,19.0585999 42.8461679,22.8601208 C49.3678904,29.3820783 55.763141,32.190958 59.1789605,32.190958 C60.4076521,32.190958 61.2546897,31.8508345 61.7761348,31.3290848 C62.3762483,30.7289714 62.7241403,29.6841943 62.6249324,28.2442874 C62.5458353,27.0962688 62.1936328,25.6800133 61.5603497,24.1229447 C60.0332496,20.3685922 57.1082453,16.2014201 53.3062637,12.3999014 C46.7840878,5.87749054 40.3893024,3.06885953 36.9737169,3.06885953 Z" id="Shape"></path>
                    </g>
                </g>
            </g>
        </g>
    </g>
</svg>