<?xml version="1.0" encoding="UTF-8"?>
<svg width="60px" height="60px" viewBox="0 0 60 60" version="1.1" xmlns="http://www.w3.org/2000/svg" xmlns:xlink="http://www.w3.org/1999/xlink">
    <!-- Generator: sketchtool 63.1 (101010) - https://sketch.com -->
    <title>EFE044B4-6CF5-4C3A-B281-4DA7C4DC8CE5</title>
    <desc>Created with sketchtool.</desc>
    <g id="Page-1" stroke="none" stroke-width="1" fill="none" fill-rule="evenodd">
        <g id="Covid---update" transform="translate(-555.000000, -2042.000000)" fill="#38B2AC" fill-rule="nonzero">
            <g id="Group-38" transform="translate(165.000000, 1194.000000)">
                <g id="Group-32" transform="translate(0.000000, 848.000000)">
                    <g id="Easy-to-use" transform="translate(390.000000, 0.000000)">
                        <path d="M26.6016797,30.5772656 C26.6016797,31.8039844 26.1316406,32.2625391 25.3750781,32.2625391 C24.6185156,32.2625391 24.1483594,31.8039844 24.1483594,30.5772656 L24.1483594,26.2437891 L21.4427344,26.2437891 L21.4427344,30.6575391 C21.4427344,33.0650391 22.8871875,34.4523047 25.3521094,34.4523047 C27.8169141,34.4523047 29.2613672,33.0650391 29.2613672,30.6575391 L29.2613672,26.2437891 L26.6016797,26.2437891 L26.6016797,30.5772656 L26.6016797,30.5772656 Z" id="Path"></path>
                        <polygon id="Path" points="38.9603906 26.2436719 36.0485156 26.2436719 34.7186719 28.2614063 33.3544922 26.2436719 30.3164062 26.2436719 33.1136719 30.2218359 30.2131641 34.2687891 33.2970703 34.2687891 34.6498828 32.1248437 36.0370312 34.2687891 39.1324219 34.2687891 36.1746094 30.1187109"></polygon>
                        <path d="M51.2131641,8.78695313 C45.5469141,3.12058594 38.0132812,0 30,0 C21.9867188,0 14.4530859,3.12058594 8.78683594,8.78695313 C3.12058594,14.4530859 0,21.9867188 0,30 C0,38.0132812 3.12058594,45.5470313 8.78683594,51.2131641 C14.4530859,56.8794141 21.9867188,60 30,60 C38.0132812,60 45.5469141,56.8795312 51.2131641,51.2132812 C56.8794141,45.5470313 60,38.0132812 60,30 C60,21.9867188 56.8794141,14.4530859 51.2131641,8.78695313 Z M56.4003516,28.23 L49.2452344,28.23 C48.4016016,18.9828516 41.0172656,11.5985156 31.7701172,10.7548828 L31.7701172,3.59976562 C38.1714844,4.01988281 44.1319922,6.71203125 48.7100391,11.2900781 C53.2879687,15.868125 55.9802344,21.8286328 56.4003516,28.23 Z M30,45.7870312 C21.2950781,45.7870312 14.2129687,38.7050391 14.2129687,30 C14.2129687,21.2950781 21.2949609,14.2130859 30,14.2130859 C38.7050391,14.2130859 45.7870312,21.2950781 45.7870312,30 C45.7870312,38.7050391 38.7049219,45.7870312 30,45.7870312 Z M11.2900781,11.2900781 C15.868125,6.71203125 21.8286328,4.01976562 28.23,3.59976562 L28.23,10.7548828 C18.9828516,11.5985156 11.5985156,18.9828516 10.7548828,28.23 L3.59964844,28.23 C4.01976562,21.8286328 6.71203125,15.868125 11.2900781,11.2900781 Z M3.59964844,31.77 L10.7547656,31.77 C11.5983984,41.0172656 18.9827344,48.4016016 28.2298828,49.2452344 L28.2298828,56.4002344 C21.8285156,55.9801172 15.8680078,53.2879688 11.2899609,48.7099219 C6.71191406,44.1319922 4.01976563,38.1714844 3.59964844,31.77 Z M48.7099219,48.7099219 C44.131875,53.2879688 38.1713672,55.9802344 31.77,56.4002344 L31.77,49.2452344 C41.0171484,48.4016016 48.4014844,41.0172656 49.2451172,31.77 L56.4002344,31.77 C55.9802344,38.1714844 53.2880859,44.1319922 48.7099219,48.7099219 Z" id="Shape"></path>
                    </g>
                </g>
            </g>
        </g>
    </g>
</svg>