<?xml version="1.0" encoding="UTF-8"?>
<svg width="42px" height="70px" viewBox="0 0 42 70" version="1.1" xmlns="http://www.w3.org/2000/svg" xmlns:xlink="http://www.w3.org/1999/xlink">
    <!-- Generator: sketchtool 63.1 (101010) - https://sketch.com -->
    <title>D7EC6274-9FC3-43DD-A002-FBE939912B62</title>
    <desc>Created with sketchtool.</desc>
    <g id="Page-1" stroke="none" stroke-width="1" fill="none" fill-rule="evenodd">
        <g id="Covid---update" transform="translate(-549.000000, -2617.000000)" fill="#38B2AC" fill-rule="nonzero">
            <g id="Group-38" transform="translate(165.000000, 1194.000000)">
                <g id="Group-32" transform="translate(0.000000, 848.000000)">
                    <g id="Mobile-menu" transform="translate(384.000000, 575.000000)">
                        <path d="M41.4492754,5.67481884 C41.4492754,2.54076087 38.9085145,0 35.7744565,0 L5.67481884,0 C2.54076087,0 0,2.54076087 0,5.67481884 L0,64.3251812 C0,67.4592391 2.54076087,70 5.67481884,70 L35.7744565,70 C38.9085145,70 41.4492754,67.4592391 41.4492754,64.3251812 L41.4492754,5.67481884 Z M22.5752943,62.1654212 C22.5752943,63.1872736 21.7470562,64.016078 20.7246377,64.016078 C19.7022191,64.016078 18.873981,63.1872736 18.873981,62.1654212 C18.873981,61.1430028 19.7022191,60.3141984 20.7246377,60.3141984 C21.74649,60.3153306 22.5741622,61.1435688 22.5752943,62.1654212 Z M23.0361187,56.1328125 L22.3177084,54.8420516 C22.3165761,54.8403533 22.31601,54.8386549 22.3148777,54.8369565 L18.239923,47.5215128 C18.901721,47.1161684 19.7593977,47.2441123 20.2740036,47.8243886 L21.7527174,49.5204936 C22.0703125,49.8845109 22.5809557,50.013587 23.0332881,49.84375 C23.4861867,49.673913 23.7862319,49.2408288 23.7856658,48.7573596 C23.7828351,44.6025814 23.782269,39.1808197 23.7890625,36.3966259 C23.7890625,36.1447012 24.0296649,36.0875226 24.1706296,36.0875226 L24.7390172,36.0875226 C24.9292346,36.0875226 25.1211504,36.1764041 25.1217165,36.3977581 C25.1222826,37.0686142 25.0809557,46.102808 25.0803896,46.1950861 C25.0803896,46.2460371 25.0724638,46.2907609 25.0724638,46.3400136 L25.0724638,46.8155571 C25.0724638,47.4558423 25.5915987,47.9749774 26.2318841,47.9749774 C26.8721694,47.9749774 27.3913043,47.4558423 27.3913043,46.8155571 L27.3913043,44.0279665 C27.3913043,43.9526722 27.4869791,43.9130435 27.5622736,43.9130435 L28.717731,43.9130435 C28.7505661,43.9085145 28.7828351,43.9192709 28.8066123,43.9413496 C28.8303896,43.9639945 28.8428442,43.9956974 28.8405797,44.0279665 L28.8405797,47.7219203 C28.8405797,48.3622057 29.3597146,48.8813406 30,48.8813406 C30.6402854,48.8813406 31.1594203,48.3622057 31.1594203,47.7219203 L31.1594203,44.935462 C31.1696104,44.8522419 31.2369791,44.7882699 31.3201993,44.7826087 L32.4654665,44.7826087 C32.5447238,44.7899683 32.6064312,44.8556386 32.6081296,44.935462 L32.6081296,47.7219203 C32.6081296,48.3622057 33.1272645,48.8813406 33.7675499,48.8813406 C34.4084013,48.8813406 34.9269701,48.3622057 34.9269701,47.7219203 L34.9269701,47.3041214 C34.9190443,47.1959919 34.9507472,47.0884284 35.0164175,47.0023777 C35.0588768,46.9621829 35.1171875,46.9435009 35.174932,46.9514267 L35.7823823,46.9531249 C35.8808877,46.9480299 35.9776948,46.9836957 36.0495925,47.0516304 C36.12149,47.1195652 36.1622509,47.2135417 36.1633832,47.3126132 C36.1696104,49.6999548 36.1690443,49.7435462 36.1667799,50.9165535 C36.1656477,51.5398551 36.1639493,52.4835825 36.1622509,54.2623414 C36.1605525,56.3864357 34.4423687,58.1091486 32.3188406,58.115942 L26.392663,58.115942 C24.9971694,58.111413 23.713202,57.352808 23.0361187,56.1328125 L23.0361187,56.1328125 Z M14.310462,41.0144928 C13.6962183,41.0088316 13.1131114,40.7427536 12.7055028,40.2830616 C12.357337,39.8958333 12.1914629,39.3789629 12.2492074,38.8615262 L13.7165987,26.0869565 L14.9275362,26.0869565 L14.9275362,29.0987319 C14.9275362,29.7395833 15.4466712,30.2581522 16.0869565,30.2581522 C16.7272419,30.2581522 17.2463768,29.7395833 17.2463768,29.0987319 L17.2463768,26.0869565 L24.4927536,26.0869565 L24.4927536,29.0987319 C24.4927536,29.7395833 25.0118886,30.2581522 25.6521739,30.2581522 C26.2924593,30.2581522 26.8115942,29.7395833 26.8115942,29.0987319 L26.8115942,26.0869565 L27.8108016,26.0869565 L29.2781929,38.8451087 C29.3353713,39.3568841 29.1689312,39.8680933 28.8218977,40.2485281 C28.4612771,40.6453804 27.9647871,40.8916441 27.4303668,40.9380661 C27.4360281,38.7749094 27.4411232,36.7091259 27.4405571,36.3937954 C27.4382926,34.9156477 26.2522645,33.7681159 24.7395833,33.7681159 L24.1717617,33.7681159 C23.460711,33.7579258 22.7745697,34.0324955 22.2667572,34.53125 C21.7595109,35.0300045 21.4730525,35.7110507 21.4707881,36.4226675 C21.4679574,37.5820878 21.4668252,39.1304348 21.4662591,41.0144928 L14.310462,41.0144928 Z M24.4927536,23.7681159 L17.2463768,23.7681159 L17.2463768,22.642097 C17.2463768,20.7869113 18.8745471,19.2787591 20.8695652,19.2787591 C22.8645833,19.2787591 24.4927536,20.7874774 24.4927536,22.642097 L24.4927536,23.7681159 Z M38.4816577,47.306952 C38.469769,45.8254075 37.2633606,44.6314538 35.7818161,44.6342843 L35.1732336,44.6331522 C35.0820878,44.6331522 34.9926404,44.6291893 34.9037591,44.6382472 C34.7560009,43.4018342 33.7103713,42.4694293 32.4654665,42.4643342 L31.3201993,42.4643342 C31.1062046,42.4665987 30.8933423,42.4971694 30.6867074,42.55548 C30.5593297,42.3856432 30.4098732,42.233922 30.2428668,42.1031477 C30.3515625,42.0046422 30.454597,41.9010417 30.5525362,41.7923461 C31.3371829,40.9182519 31.7113904,39.7514719 31.5817481,38.584692 L29.9966032,24.7995925 C29.9298007,24.2136549 29.4344429,23.7698143 28.8445426,23.7681159 L26.8115942,23.7681159 L26.8115942,22.642097 C26.8115942,19.5086051 24.1428896,16.9599186 20.8695652,16.9599186 C17.5962409,16.9599186 14.9275362,19.5086051 14.9275362,22.642097 L14.9275362,23.7681159 L12.6828578,23.7681159 C12.0923913,23.7703804 11.5975997,24.2136549 11.5307971,24.7995925 L9.94508609,38.5824275 C9.81544377,39.7599638 10.1890852,40.9375 10.974298,41.8251812 C11.8217843,42.7785326 13.0349864,43.3265399 14.310462,43.3333333 L21.4651268,43.3333333 L21.4651268,45.8118206 C20.0113225,44.6908968 17.9744113,44.7271287 16.5613678,45.8984375 L16.0320426,46.296422 C15.5763133,46.6389267 15.4449728,47.2656249 15.7252038,47.761549 L19.3246151,54.2028986 L2.31884058,54.2028986 L2.31884058,13.6231884 L39.1304348,13.6231884 L39.1304348,54.2028986 L38.4810914,54.2028986 C38.4827899,52.4637681 38.4850543,51.5262681 38.4861867,50.9069293 C38.488451,49.7299593 38.488451,49.701087 38.4816577,47.306952 Z M5.67312043,2.31884058 L35.7761549,2.31884058 C37.6268116,2.31884058 39.1304348,3.87171652 39.1304348,5.7218071 L39.1304348,11.3043478 L2.31884058,11.3043478 L2.31884058,5.7218071 C2.31884058,3.87171652 3.82246377,2.31884058 5.67312043,2.31884058 Z M35.7761549,67.826087 L5.67312043,67.826087 C3.82246377,67.826087 2.31884058,66.273211 2.31884058,64.4231204 L2.31884058,56.5217391 L20.615942,56.5217391 L21.0105299,57.2452446 C21.1718751,57.5350997 21.3558651,57.8119339 21.5613678,58.0723506 C19.8324275,57.7168252 18.0666893,58.4873188 17.1512681,59.9971694 C16.236413,61.5064538 16.3700181,63.428442 17.4847146,64.7967617 C18.5994113,66.1656477 20.454597,66.6847826 22.1178668,66.09375 C23.7811368,65.5032835 24.8930028,63.9300272 24.8947012,62.1648551 C24.8952672,61.429461 24.6999548,60.7076539 24.328578,60.0730299 C24.990942,60.3113678 25.6889719,60.4336504 26.392663,60.4353487 L32.3188406,60.4353487 C34.8499774,60.4359148 37.1218297,58.8819067 38.0378171,56.5223052 L39.1304348,56.5223052 L39.1304348,64.4231204 C39.1304348,66.273211 37.6268116,67.826087 35.7761549,67.826087 L35.7761549,67.826087 Z" id="Shape"></path>
                        <path d="M15.8327672,7.68115942 L25.6165081,7.68115942 C26.2567935,7.68115942 26.7759284,7.16202449 26.7759284,6.52173913 C26.7759284,5.88145377 26.2567935,5.36231884 25.6165081,5.36231884 L15.8327672,5.36231884 C15.1924819,5.36231884 14.673347,5.88145377 14.673347,6.52173913 C14.673347,7.16202449 15.1924819,7.68115942 15.8327672,7.68115942 Z" id="Path"></path>
                    </g>
                </g>
            </g>
        </g>
    </g>
</svg>