<?xml version="1.0" encoding="UTF-8"?>
<svg width="70px" height="47px" viewBox="0 0 70 47" version="1.1" xmlns="http://www.w3.org/2000/svg" xmlns:xlink="http://www.w3.org/1999/xlink">
    <!-- Generator: sketchtool 63.1 (101010) - https://sketch.com -->
    <title>5DDF831C-5CA1-4A20-AD2D-8C7F9ED421DE</title>
    <desc>Created with sketchtool.</desc>
    <g id="Page-1" stroke="none" stroke-width="1" fill="none" fill-rule="evenodd">
        <g id="Covid---update" transform="translate(-945.000000, -2345.000000)" fill="#38B2AC" fill-rule="nonzero">
            <g id="Group-38" transform="translate(165.000000, 1194.000000)">
                <g id="Group-32" transform="translate(0.000000, 848.000000)">
                    <g id="Online-payment" transform="translate(780.000000, 303.000000)">
                        <path d="M62.7083789,0.0455273437 L7.29162109,0.0455273437 C3.2725,0.0455273437 0,3.31802734 0,7.33728516 L0,39.4206641 C0,43.4397852 3.2725,46.7122852 7.29162109,46.7122852 L62.7082422,46.7122852 C66.7273633,46.7122852 69.9998633,43.4397852 69.9998633,39.4206641 L69.9998633,7.33728516 C69.9998633,3.31802734 66.7275,0.0455273437 62.7083789,0.0455273437 Z M67.0833789,39.4205273 C67.0833789,41.8326562 65.1205078,43.7955273 62.7083789,43.7955273 L7.29162109,43.7955273 C4.87949219,43.7955273 2.91662109,41.8326562 2.91662109,39.4205273 L2.91662109,7.33728516 C2.91662109,4.92515625 4.87949219,2.96228516 7.29162109,2.96228516 L62.7082422,2.96228516 C65.1203711,2.96228516 67.0833789,4.92515625 67.0833789,7.33728516 L67.0833789,39.4205273 L67.0833789,39.4205273 Z" id="Shape"></path>
                        <path d="M68.5416211,8.79552734 L1.45837891,8.79552734 C0.653378906,8.79552734 0,9.44890625 0,10.2539062 L0,19.0039062 C0,19.8089062 0.653378906,20.4622852 1.45837891,20.4622852 L68.5417578,20.4622852 C69.3467578,20.4622852 70.0001367,19.8089062 70.0001367,19.0039062 L70.0001367,10.2539062 C70.0001367,9.44890625 69.3466211,8.79552734 68.5416211,8.79552734 Z M67.0833789,17.5455273 L2.91662109,17.5455273 L2.91662109,11.7121484 L67.0833789,11.7121484 L67.0833789,17.5455273 L67.0833789,17.5455273 Z" id="Shape"></path>
                        <path d="M27.7083789,29.2122852 L10.2083789,29.2122852 C9.40337891,29.2122852 8.75,29.8656641 8.75,30.6706641 C8.75,31.4756641 9.40337891,32.1289062 10.2083789,32.1289062 L27.7083789,32.1289062 C28.5133789,32.1289062 29.1667578,31.4755273 29.1667578,30.6705273 C29.1667578,29.8655273 28.5133789,29.2122852 27.7083789,29.2122852 Z" id="Path"></path>
                        <path d="M27.7083789,35.0455273 L10.2083789,35.0455273 C9.40337891,35.0455273 8.75,35.6989063 8.75,36.5039062 C8.75,37.3089062 9.40337891,37.9622852 10.2083789,37.9622852 L27.7083789,37.9622852 C28.5133789,37.9622852 29.1667578,37.3089062 29.1667578,36.5039062 C29.1667578,35.6989063 28.5133789,35.0455273 27.7083789,35.0455273 Z" id="Path"></path>
                        <path d="M56.875,26.2955273 L53.9583789,26.2955273 C51.54625,26.2955273 49.5833789,28.2583984 49.5833789,30.6705273 L49.5833789,33.5871484 C49.5833789,35.9992773 51.54625,37.9621484 53.9583789,37.9621484 L56.875,37.9621484 C59.2871289,37.9621484 61.25,35.9992773 61.25,33.5871484 L61.25,30.6705273 C61.25,28.2585352 59.2871289,26.2955273 56.875,26.2955273 Z M58.3333789,33.5872852 C58.3333789,34.3922852 57.68,35.0456641 56.875,35.0456641 L53.9583789,35.0456641 C53.1533789,35.0456641 52.5,34.3922852 52.5,33.5872852 L52.5,30.6706641 C52.5,29.8656641 53.1533789,29.2122852 53.9583789,29.2122852 L56.875,29.2122852 C57.68,29.2122852 58.3333789,29.8656641 58.3333789,30.6706641 L58.3333789,33.5872852 Z" id="Shape"></path>
                    </g>
                </g>
            </g>
        </g>
    </g>
</svg>