<?xml version="1.0" encoding="UTF-8"?>
<svg width="60px" height="60px" viewBox="0 0 60 60" version="1.1" xmlns="http://www.w3.org/2000/svg" xmlns:xlink="http://www.w3.org/1999/xlink">
    <!-- Generator: sketchtool 63.1 (101010) - https://sketch.com -->
    <title>F8F90C13-D9D2-4862-8A4F-CB6F9BD22255</title>
    <desc>Created with sketchtool.</desc>
    <g id="Page-1" stroke="none" stroke-width="1" fill="none" fill-rule="evenodd">
        <g id="Covid---update" transform="translate(-165.000000, -2627.000000)" fill="#38B2AC" fill-rule="nonzero">
            <g id="Group-38" transform="translate(165.000000, 1194.000000)">
                <g id="Group-32" transform="translate(0.000000, 848.000000)">
                    <g id="smile" transform="translate(0.000000, 585.000000)">
                        <path d="M30,0 C13.4582812,0 0,13.4582812 0,30 C0,46.5417188 13.4582812,60 30,60 C46.5417188,60 60,46.5417188 60,30 C60,13.4582812 46.5417188,0 30,0 Z M30,57.5000391 C14.8364062,57.5000391 2.49996094,45.1635937 2.49996094,30 C2.49996094,14.8364062 14.8364062,2.49996094 30,2.49996094 C45.1635937,2.49996094 57.5000391,14.8364062 57.5000391,30 C57.5000391,45.1635937 45.1635937,57.5000391 30,57.5000391 Z" id="Shape"></path>
                        <path d="M46.0998047,35.0525391 C45.4198828,34.8902344 44.7521484,35.3076563 44.5946484,35.9790234 C42.9833203,42.7624219 36.9823828,47.5000781 29.9998828,47.5000781 C23.0089453,47.5000781 17.0055469,42.7551563 15.4014844,35.9632031 C15.2415234,35.289375 14.5640625,34.8803906 13.8976172,35.0329688 C13.2249609,35.1916406 12.8087109,35.8654688 12.9673828,36.5368359 C14.8399219,44.4641016 21.8443359,49.9999219 29.9998828,49.9999219 C38.1455859,49.9999219 45.1475391,44.4725391 47.0262891,36.5575781 C47.18625,35.8850391 46.7712891,35.2112109 46.0998047,35.0525391 Z" id="Path"></path>
                        <path d="M15,24.9999609 C15,22.2424219 17.2423828,19.9999219 20.0000391,19.9999219 C22.7576953,19.9999219 25.0000781,22.2423047 25.0000781,24.9999609 C25.0000781,25.6908984 25.5591797,26.25 26.2501172,26.25 C26.9410547,26.25 27.5001562,25.6908984 27.5001562,24.9999609 C27.5001562,20.8641797 24.1359375,17.4999609 20.0001562,17.4999609 C15.864375,17.4999609 12.5001562,20.8641797 12.5001562,24.9999609 C12.5001562,25.6908984 13.0592578,26.25 13.7501953,26.25 C14.4408984,26.25 15,25.6908984 15,24.9999609 Z" id="Path"></path>
                        <path d="M39.9999609,17.4999609 C35.8641797,17.4999609 32.4999609,20.8641797 32.4999609,24.9999609 C32.4999609,25.6908984 33.0590625,26.25 33.75,26.25 C34.4409375,26.25 35.0000391,25.6908984 35.0000391,24.9999609 C35.0000391,22.2424219 37.2424219,19.9999219 40.0000781,19.9999219 C42.7576172,19.9999219 45.0001172,22.2423047 45.0001172,24.9999609 C45.0001172,25.6908984 45.5592187,26.25 46.2501562,26.25 C46.9410937,26.25 47.5001953,25.6908984 47.5001953,24.9999609 C47.4999609,20.8642969 44.1357422,17.4999609 39.9999609,17.4999609 Z" id="Path"></path>
                    </g>
                </g>
            </g>
        </g>
    </g>
</svg>