<?xml version="1.0" encoding="UTF-8"?>
<svg width="90px" height="58px" viewBox="0 0 90 58" version="1.1" xmlns="http://www.w3.org/2000/svg" xmlns:xlink="http://www.w3.org/1999/xlink">
    <!-- Generator: sketchtool 63.1 (101010) - https://sketch.com -->
    <title>4F1EE00D-E597-4459-BB7B-5D540DAAF0E3</title>
    <desc>Created with sketchtool.</desc>
    <g id="Page-1" stroke="none" stroke-width="1" fill="none" fill-rule="evenodd">
        <g id="Covid---update" transform="translate(-545.000000, -2334.000000)" fill="#38B2AC" fill-rule="nonzero">
            <g id="Group-38" transform="translate(165.000000, 1194.000000)">
                <g id="Group-32" transform="translate(0.000000, 848.000000)">
                    <g id="Pick-up" transform="translate(380.000000, 292.000000)">
                        <path d="M87.2324727,13.9128657 L82.8626436,13.9128657 C82.864017,13.8702934 82.8688236,13.8277212 82.8688236,13.7844625 L82.8688236,2.85576987 C82.8688236,1.3293509 81.6266768,0.0878909683 80.1009447,0.0878909683 L27.3883364,0.0878909683 C26.6591159,0.0878909683 26.0685985,0.678408412 26.0685985,1.4076287 C26.0685985,2.13616256 26.6591159,2.72736661 27.3883364,2.72736661 L37.2053455,2.72736661 L39.5619221,6.65774085 C40.0398293,7.45562596 40.9661176,7.95138604 41.9782371,7.95138604 L55.5361056,7.95138604 C56.548225,7.95138604 57.4745135,7.45562596 57.9531072,6.65774085 L60.3089972,2.72736661 L80.100258,2.72736661 C80.1716695,2.72736661 80.2293477,2.78504506 80.2293477,2.85576987 L80.2293477,13.7837757 C80.2293477,13.8551871 80.1716695,13.9128657 80.100258,13.9128657 L17.4140847,13.9128657 C17.3433599,13.9128657 17.2849948,13.8551871 17.2849948,13.7844625 L17.2849948,2.85576987 C17.2849948,2.78504506 17.3433599,2.72736661 17.4140847,2.72736661 L21.5525134,2.72736661 C22.2810471,2.72736661 22.8722513,2.13616256 22.8722513,1.4076287 C22.8722513,0.678408412 22.2810471,0.0878909683 21.5525134,0.0878909683 L17.4140847,0.0878909683 C15.8876657,0.0878909683 14.6462058,1.3293509 14.6462058,2.85576987 L14.6462058,13.7844625 C14.6462058,15.3108813 15.8876657,16.5523412 17.4140847,16.5523412 L21.7839138,16.5523412 C21.7818538,16.5949135 21.777734,16.6374857 21.777734,16.6807444 L21.777734,27.609437 C21.777734,27.699388 21.7825406,27.7879656 21.7907804,27.8758565 C20.5424539,28.1436494 19.6038059,29.2546461 19.6038059,30.581937 L19.6038059,35.5196242 C19.3689721,35.4214334 19.1121656,35.3651284 18.8423129,35.3651284 L16.0373551,35.3651284 C15.8519602,34.4402132 15.0341622,33.7418921 14.0556885,33.7418921 L2.02080567,33.7418921 C0.906375611,33.7418921 -1.49880694e-14,34.6489543 -1.49880694e-14,35.7633843 L-1.49880694e-14,38.0739554 C-1.49880694e-14,38.8031759 0.591204048,39.3936934 1.31973773,39.3936934 C2.04827159,39.3936934 2.63947564,38.8031759 2.63947564,38.0739554 L2.63947564,36.3813677 L13.437705,36.3813677 L13.437705,53.6938285 L2.63947564,53.6938285 L2.63947564,44.1157729 C2.63947564,43.3865524 2.04827159,42.7960352 1.31973773,42.7960352 C0.591204048,42.7960352 -1.49880694e-14,43.3865524 -1.49880694e-14,44.1157729 L-1.49880694e-14,54.3124984 C-1.49880694e-14,55.4269285 0.906375611,56.3333041 2.02080567,56.3333041 L14.0556885,56.3333041 C15.0341622,56.3333041 15.8519602,55.6349829 16.0373551,54.7100678 L18.8423129,54.7100678 C19.4431301,54.7100678 19.9821489,54.4409017 20.3474458,54.0186132 C22.901777,55.3637569 27.7556932,57.0295655 36.7150788,57.7903717 C37.1545337,57.8274506 37.5953617,57.8459901 38.0355031,57.8459901 C39.9230992,57.8459901 41.8072618,57.5060992 43.5506614,56.844857 C50.7776337,54.1058174 56.9100886,48.4656892 59.9224142,45.3476197 C60.238959,45.0200885 60.5005721,44.6602849 60.7106864,44.2785085 L85.0578578,44.2785085 C86.5842768,44.2785085 87.8264233,43.036362 87.8264233,41.509943 L87.8264233,30.581937 C87.8264233,30.4919862 87.8209301,30.4027219 87.8126905,30.3148309 C89.0610168,30.0470382 89.9996652,28.9360413 89.9996652,27.609437 L89.9996652,16.6814312 C89.9996652,15.1550122 88.7588916,13.9128657 87.2324727,13.9128657 L87.2324727,13.9128657 Z M55.7050212,5.2734581 C55.681675,5.28650446 55.62331,5.3119104 55.5361056,5.3119104 L41.9782371,5.3119104 C41.8910328,5.3119104 41.8326677,5.28650446 41.8093216,5.2734581 L40.2829026,2.72668001 L57.2321267,2.72668001 L55.7050212,5.2734581 Z M18.1934304,51.9490555 L18.1934304,52.0705922 L16.0771808,52.0705922 L16.0771808,38.004604 L18.1934304,38.004604 L18.1934304,51.9490555 Z M64.3636547,16.5523412 L62.8365492,19.0984328 C62.8132032,19.1121656 62.754838,19.1368851 62.6676336,19.1368851 L49.1097652,19.1368851 C49.0232476,19.1368851 48.9641957,19.1121656 48.9408498,19.0984328 L47.4144308,16.5523412 L64.3636547,16.5523412 Z M58.0245187,43.5142691 C55.1653156,46.4737227 49.3617651,51.8199656 42.6154467,54.3770435 C40.8322212,55.0533919 38.8690941,55.3239314 36.9382394,55.160509 C29.5423517,54.5329126 23.7436078,53.1218506 20.8329061,51.2596607 L20.8329061,38.8375082 L21.7605678,38.8375082 C23.9372425,38.8375082 26.0994976,38.5264566 28.1869081,37.9125933 L39.1053011,34.7018261 C39.8777803,34.4752323 40.7106845,34.8274828 41.0855945,35.5402237 C41.5133762,36.3532152 41.2064446,37.3749477 40.4003195,37.8171491 L37.9153397,39.1808323 C37.2334981,39.5550557 36.8421087,40.2973224 36.9190133,41.0711749 C36.9959179,41.8457141 37.5253235,42.4966564 38.2675903,42.7294302 L41.0540086,43.6028467 C42.7383566,44.1308793 44.5696473,44.062901 46.2100498,43.4098986 L55.482547,39.7212245 C56.4205085,39.3483745 57.4868731,39.616854 58.1357556,40.3907065 C58.9048015,41.3094417 58.8574229,42.651839 58.0245187,43.5142691 Z M85.1876344,41.509943 C85.1876344,41.5813544 85.1292692,41.6390328 85.0585446,41.6390328 L61.3169968,41.6390328 C61.2641249,40.592581 60.8796019,39.5564289 60.1586212,38.6960588 L60.1586212,38.695372 C58.7770851,37.0467298 56.5056529,36.4733786 54.5068199,37.2685172 L45.2343228,40.9578778 C44.1555984,41.3870329 42.9512176,41.4316652 41.8436541,41.0849077 L40.6269135,40.7031315 L41.6699321,40.1311534 C43.7291899,39.0009306 44.5147155,36.3902941 43.4215715,34.31181 C42.4636973,32.4901324 40.3350881,31.5885633 38.3602877,32.1701544 L27.4418949,35.3802347 C25.7506805,35.8780546 24.0038475,36.1479073 22.2425948,36.1897928 L22.2425948,30.581937 C22.2425948,30.5112124 22.3002732,30.4535339 22.3716846,30.4535339 L42.1629455,30.4535339 L44.5188354,34.3832214 C44.9974292,35.1817933 45.9237176,35.6775533 46.9358371,35.6775533 L60.4937055,35.6775533 C61.5058251,35.6775533 62.4314266,35.1817933 62.9100206,34.3832214 L65.2665972,30.4535339 L85.0578578,30.4535339 C85.1292692,30.4535339 85.1869478,30.5112124 85.1869478,30.581937 L85.1869478,41.509943 L85.1876344,41.509943 Z M45.2405027,30.4535339 L62.1897265,30.4535339 L60.6626209,32.9996254 C60.639275,33.0133584 60.5809099,33.0380777 60.4937055,33.0380777 L46.9358371,33.0380777 C46.8493193,33.0380777 46.7902677,33.0133584 46.7669215,32.9996254 L45.2405027,30.4535339 Z M87.3608759,27.609437 C87.3608759,27.6801618 87.3031975,27.7378403 87.2324727,27.7378403 L24.5456129,27.7378403 C24.4742015,27.7378403 24.416523,27.6801618 24.416523,27.609437 L24.416523,16.6814312 C24.416523,16.6100198 24.4748881,16.5523412 24.5456129,16.5523412 L44.3368735,16.5523412 L46.6927635,20.4827156 C47.1713573,21.2806007 48.0976458,21.7763606 49.1097652,21.7763606 L62.6676336,21.7763606 C63.6797531,21.7763606 64.6060415,21.2806007 65.0846353,20.4827156 L67.4405252,16.5523412 L87.2317861,16.5523412 C87.3031975,16.5523412 87.3608759,16.6100198 87.3608759,16.6807444 L87.3608759,27.609437 Z" id="Shape"></path>
                    </g>
                </g>
            </g>
        </g>
    </g>
</svg>