<?xml version="1.0" encoding="UTF-8"?>
<svg width="62px" height="69px" viewBox="0 0 62 69" version="1.1" xmlns="http://www.w3.org/2000/svg" xmlns:xlink="http://www.w3.org/1999/xlink">
    <!-- Generator: sketchtool 63.1 (101010) - https://sketch.com -->
    <title>59D1E29C-A3B3-4377-A73C-AED8F9BE808D</title>
    <desc>Created with sketchtool.</desc>
    <g id="Page-1" stroke="none" stroke-width="1" fill="none" fill-rule="evenodd">
        <g id="Covid---update" transform="translate(-945.000000, -2618.000000)" fill="#38B2AC" fill-rule="nonzero">
            <g id="Group-38" transform="translate(165.000000, 1194.000000)">
                <g id="Group-32" transform="translate(0.000000, 848.000000)">
                    <g id="Prestige" transform="translate(780.000000, 576.000000)">
                        <path d="M42.6630438,0 C41.9268396,0 41.3298236,0.597015968 41.3298236,1.33322012 L41.3298236,7.46603266 C41.3298236,8.2022368 41.9268396,8.79925277 42.6630438,8.79925277 C43.3992479,8.79925277 43.9962639,8.2022368 43.9962639,7.46603266 L43.9962639,1.33322012 C43.9962639,0.597015968 43.3992479,0 42.6630438,0 Z" id="Path"></path>
                        <path d="M11.9989811,41.5964677 C11.2630436,41.5964677 10.6657609,42.1937503 10.6657609,42.9296878 C10.6657609,43.6656253 11.2630436,44.2629079 11.9989811,44.2629079 C12.7349186,44.2629079 13.3322012,43.6656253 13.3322012,42.9296878 C13.3322012,42.1937503 12.7349186,41.5964677 11.9989811,41.5964677 Z" id="Path"></path>
                        <path d="M61.3281254,38.9300274 C61.3281254,35.9894771 58.9357952,33.597147 55.9952449,33.597147 L46.0424901,33.597147 C47.5832926,29.6504154 48.206973,25.0049433 48.0867165,20.8696944 C48.0637851,20.0805614 48.033521,19.6242002 47.9925912,19.3368913 C47.9236637,16.4562026 45.5582646,14.1321332 42.6630438,14.1321332 C39.7224935,14.1321332 37.3301633,16.5244634 37.3301633,19.4650137 L37.3301633,20.7982338 C37.3301633,29.2303178 26.5025494,33.9679155 18.3312433,35.9994763 C17.7134291,34.5870629 16.3031489,33.597147 14.6654213,33.597147 L1.33322012,33.597147 C0.597015968,33.597147 0,34.1941629 0,34.9303671 L0,66.9276499 C0,67.663854 0.597015968,68.26087 1.33322012,68.26087 L14.6654213,68.26087 C16.2922165,68.26087 17.6943641,67.2840196 18.3185777,65.8865383 C18.9951869,66.0601236 19.6232669,66.2241096 20.2030844,66.3755634 C24.8580224,67.5913269 27.4222047,68.26087 33.6584751,68.26087 L47.9959242,68.26087 C50.9364745,68.26087 53.3288047,65.8685398 53.3288047,62.9279895 C53.3288047,61.8315493 52.9958996,60.8116359 52.4262147,59.9631746 C54.4857731,59.2428358 55.9952449,57.2750029 55.9952449,54.9286688 C55.9952449,53.8362283 55.6704725,52.8129818 55.1025207,51.9606542 C57.1530133,51.2391155 58.6616852,49.2758155 58.6616852,46.9293481 C58.6616852,45.8329079 58.3287801,44.8129945 57.7590951,43.9645332 C59.8186536,43.2441944 61.3281254,41.2763615 61.3281254,38.9300274 Z M15.9986414,64.2612096 C15.9986414,64.9963472 15.4005589,65.5944298 14.6654213,65.5944298 L2.66644023,65.5944298 L2.66644023,36.2635872 L14.6654213,36.2635872 C15.4005589,36.2635872 15.9986414,36.8616697 15.9986414,37.5968073 L15.9986414,64.2612096 Z M55.9952449,41.5964677 C53.1356211,41.5964677 52.4539456,41.5964677 49.3291443,41.5964677 C48.5929402,41.5964677 47.9959242,42.1934836 47.9959242,42.9296878 C47.9959242,43.6658919 48.5929402,44.2629079 49.3291443,44.2629079 L53.3288047,44.2629079 C54.7990798,44.2629079 55.9952449,45.459073 55.9952449,46.9293481 C55.9952449,48.4020231 54.8014796,49.5957884 53.3288047,49.5957884 L46.6627041,49.5957884 C45.9265,49.5957884 45.329484,50.1928043 45.329484,50.9290085 C45.329484,51.6652126 45.9265,52.2622286 46.6627041,52.2622286 L50.6623645,52.2622286 C52.1151744,52.2622286 53.3288047,53.4227967 53.3288047,54.9286688 C53.3288047,56.4013438 52.1350394,57.5951091 50.6623645,57.5951091 C47.8027406,57.5951091 47.1210652,57.5951091 43.9962639,57.5951091 C43.2600597,57.5951091 42.6630438,58.192125 42.6630438,58.9283292 C42.6630438,59.6645333 43.2600597,60.2615493 43.9962639,60.2615493 L47.9959242,60.2615493 C49.4661994,60.2615493 50.6623645,61.4577144 50.6623645,62.9279895 C50.6623645,64.3982647 49.4661994,65.5944298 47.9959242,65.5944298 L33.6584751,65.5944298 C27.7647089,65.5944298 25.4627711,64.9932808 20.8768938,63.7956492 C20.2050842,63.6201974 19.4682134,63.4278138 18.6650816,63.2230311 L18.6650816,38.6667164 C28.313329,36.3685116 39.9966035,30.7588546 39.9966035,20.7982338 L39.9966035,19.4650137 C39.9966035,17.9947386 41.1927686,16.7985735 42.6630438,16.7985735 C44.1306525,16.7985735 45.3266842,17.9928721 45.329484,19.4608807 L45.329484,19.4650137 C45.329484,20.0444312 46.0526226,27.1554273 43.1528688,33.597147 L38.6633834,33.597147 C37.9271792,33.597147 37.3301633,34.1941629 37.3301633,34.9303671 C37.3301633,35.6665712 37.9271792,36.2635872 38.6633834,36.2635872 C39.594371,36.2635872 54.4756406,36.2635872 55.9952449,36.2635872 C57.4655201,36.2635872 58.6616852,37.4597523 58.6616852,38.9300274 C58.6616852,40.4027024 57.4679199,41.5964677 55.9952449,41.5964677 Z" id="Shape"></path>
                        <path d="M11.9989811,46.9293481 C11.2627769,46.9293481 10.6657609,47.5263641 10.6657609,48.2625682 L10.6657609,58.9283292 C10.6657609,59.6645333 11.2627769,60.2615493 11.9989811,60.2615493 C12.7351852,60.2615493 13.3322012,59.6645333 13.3322012,58.9283292 L13.3322012,48.2625682 C13.3322012,47.5263641 12.7351852,46.9293481 11.9989811,46.9293481 Z" id="Path"></path>
                        <path d="M31.9972828,16.7985735 L26.6644023,16.7985735 C25.9281982,16.7985735 25.3311822,17.3955894 25.3311822,18.1317936 C25.3311822,18.8679977 25.9281982,19.4650137 26.6644023,19.4650137 L31.9972828,19.4650137 C32.733487,19.4650137 33.3305029,18.8679977 33.3305029,18.1317936 C33.3305029,17.3955894 32.733487,16.7985735 31.9972828,16.7985735 Z" id="Path"></path>
                        <path d="M58.6616852,16.7985735 L53.3288047,16.7985735 C52.5926005,16.7985735 51.9955846,17.3955894 51.9955846,18.1317936 C51.9955846,18.8679977 52.5926005,19.4650137 53.3288047,19.4650137 L58.6616852,19.4650137 C59.3978893,19.4650137 59.9949053,18.8679977 59.9949053,18.1317936 C59.9949053,17.3955894 59.3978893,16.7985735 58.6616852,16.7985735 Z" id="Path"></path>
                        <path d="M54.9181364,5.87670095 C54.3973806,5.35621182 53.5534523,5.35621182 53.0325632,5.87670095 L49.26235,9.64691412 C48.7417276,10.1675366 48.7417276,11.0117316 49.26235,11.5324873 C49.7832391,12.0531098 50.6270341,12.0529765 51.1479232,11.5324873 L54.9181364,7.76227417 C55.4387588,7.24165171 55.4387588,6.39745673 54.9181364,5.87670095 Z" id="Path"></path>
                        <path d="M36.0637375,9.64691412 L32.2935243,5.87670095 C31.7727685,5.35621182 30.9288402,5.35621182 30.4079511,5.87670095 C29.8873287,6.39732341 29.8873287,7.24151839 30.4079511,7.76227417 L34.1781643,11.5324873 C34.6991867,12.0531098 35.5429817,12.0529765 36.0637375,11.5324873 C36.5843599,11.0118649 36.5843599,10.1676699 36.0637375,9.64691412 Z" id="Path"></path>
                    </g>
                </g>
            </g>
        </g>
    </g>
</svg>