<?xml version="1.0" encoding="UTF-8"?>
<svg width="70px" height="65px" viewBox="0 0 70 65" version="1.1" xmlns="http://www.w3.org/2000/svg" xmlns:xlink="http://www.w3.org/1999/xlink">
    <!-- Generator: sketchtool 63.1 (101010) - https://sketch.com -->
    <title>588C889B-0688-41DB-8C2C-B02443EEBD40</title>
    <desc>Created with sketchtool.</desc>
    <g id="Page-1" stroke="none" stroke-width="1" fill="none" fill-rule="evenodd">
        <g id="Covid---update" transform="translate(-165.000000, -2327.000000)" fill="#38B2AC" fill-rule="nonzero">
            <g id="Group-38" transform="translate(165.000000, 1194.000000)">
                <g id="Group-32" transform="translate(0.000000, 848.000000)">
                    <g id="Protect-staff-&amp;-clients" transform="translate(0.000000, 285.000000)">
                        <path d="M52.0350729,44.3708958 C52.5959687,44.3708958 53.0506979,43.9161667 53.0506979,43.3552708 L53.0506979,42.2697708 C53.0506979,41.708875 52.5959687,41.2541458 52.0350729,41.2541458 C51.4741771,41.2541458 51.0194479,41.708875 51.0194479,42.2697708 L51.0194479,43.3552708 C51.0194479,43.9161667 51.4741771,44.3708958 52.0350729,44.3708958 Z" id="Path"></path>
                        <path d="M51.0194479,50.9539062 C51.0194479,51.5148021 51.4741771,51.9695312 52.0350729,51.9695312 C52.5959687,51.9695312 53.0506979,51.5148021 53.0506979,50.9539062 L53.0506979,49.8684062 C53.0506979,49.3075104 52.5959687,48.8527812 52.0350729,48.8527812 C51.4741771,48.8527812 51.0194479,49.3075104 51.0194479,49.8684062 L51.0194479,50.9539062 Z" id="Path"></path>
                        <path d="M65.0612083,45.5961458 L61.6813437,45.5961458 C61.5734167,44.5638646 61.3010937,43.5804687 60.8941667,42.6696563 L63.8237708,40.9783021 C64.3095104,40.6978542 64.4759375,40.0766979 64.1954896,39.5909583 C63.9150417,39.1050833 63.29375,38.9386562 62.8081458,39.2192396 L59.8762396,40.9119479 C59.2782396,40.0915938 58.55525,39.3686042 57.7348958,38.7706042 L59.4276042,35.8386979 C59.7080521,35.3529583 59.541625,34.7318021 59.0558854,34.4513542 C58.5701458,34.1707708 57.9489896,34.3373333 57.6685417,34.8230729 L55.9771875,37.7526771 C55.066375,37.34575 54.0828437,37.0734271 53.0506979,36.9655 L53.0506979,33.5856354 C53.0506979,33.0247396 52.5959687,32.5700104 52.0350729,32.5700104 C51.4741771,32.5700104 51.0194479,33.0247396 51.0194479,33.5856354 L51.0194479,36.9655 C49.9871667,37.0734271 49.0037708,37.34575 48.0928229,37.7526771 L46.4014687,34.8230729 C46.1208854,34.3373333 45.4998646,34.1707708 45.014125,34.4513542 C44.5283854,34.7318021 44.3619583,35.3529583 44.6424062,35.8386979 L46.3351146,38.7706042 C45.5147604,39.3686042 44.7917708,40.0915938 44.1937708,40.9119479 L41.2618646,39.2192396 C40.776125,38.9386562 40.1549687,39.1052187 39.8745208,39.5909583 C39.5940729,40.0766979 39.7605,40.6978542 40.2462396,40.9783021 L43.1758437,42.6696563 C42.7689167,43.5804687 42.4965937,44.564 42.3886667,45.5961458 L39.0088021,45.5961458 C38.4479062,45.5961458 37.9931771,46.050875 37.9931771,46.6117708 C37.9931771,47.1726667 38.4479062,47.6273958 39.0088021,47.6273958 L42.3892083,47.6273958 C42.4955104,48.6397708 42.7601146,49.6288542 43.1724583,50.5559167 L40.2462396,52.245375 C39.7605,52.5258229 39.5940729,53.1469792 39.8745208,53.6327187 C40.0626146,53.9585312 40.404,54.1406667 40.755,54.1406667 C40.92725,54.1406667 41.1019375,54.0967917 41.2618646,54.0044375 L45.02225,51.8334375 C45.5079896,51.5529896 45.6744167,50.9318333 45.3939687,50.4460937 C45.3903125,50.4397292 45.3859792,50.4341771 45.3821875,50.4279479 C44.7178333,49.2724375 44.3665625,47.9534792 44.3665625,46.6117708 C44.3665625,42.3833854 47.8066875,38.9432604 52.0350729,38.9432604 C56.2634583,38.9432604 59.7035833,42.3833854 59.7035833,46.6117708 C59.7035833,50.8402917 56.2634583,54.2802813 52.0350729,54.2802813 C50.6936354,54.2802813 49.3748125,53.9291458 48.2195729,53.2650625 C48.2132083,53.2611354 48.20725,53.2566667 48.20075,53.252875 C47.7150104,52.9722917 47.0938542,53.1388542 46.8134062,53.6245938 L44.6424063,57.3849792 C44.3619583,57.8707187 44.5283854,58.491875 45.014125,58.7723229 C45.1740521,58.8646771 45.3487396,58.9085521 45.5209896,58.9085521 C45.8719896,58.9085521 46.213375,58.7262812 46.4014688,58.4006042 L48.0909271,55.4743854 C49.0179896,55.8867292 50.0070729,56.1511979 51.0194479,56.2575 L51.0194479,59.6379063 C51.0194479,60.1988021 51.4741771,60.6535313 52.0350729,60.6535313 C52.5959688,60.6535313 53.0506979,60.1988021 53.0506979,59.6379063 L53.0506979,56.2580417 C54.0829792,56.1501146 55.066375,55.8777917 55.9771875,55.4708646 L57.6685417,58.4004688 C57.8566354,58.7262813 58.1980208,58.9084167 58.5490208,58.9084167 C58.7212708,58.9084167 58.8959583,58.8645417 59.0558854,58.7721875 C59.541625,58.4917396 59.7080521,57.8705833 59.4276042,57.3848438 L57.7348958,54.4529375 C58.55525,53.8549375 59.2782396,53.1319479 59.8762396,52.3115938 L62.8081458,54.0043021 C62.9680729,54.0966563 63.1427604,54.1405313 63.3150104,54.1405313 C63.6660104,54.1405313 64.0073958,53.9582604 64.1954896,53.6325833 C64.4759375,53.1468438 64.3095104,52.5256875 63.8237708,52.2452396 L60.8941667,50.5538854 C61.3010937,49.6430729 61.5734167,48.6595417 61.6813437,47.6272604 L65.0612083,47.6272604 C65.6221042,47.6272604 66.0768333,47.1725313 66.0768333,46.6116354 C66.0768333,46.0507396 65.6221042,45.5961458 65.0612083,45.5961458 L65.0612083,45.5961458 Z" id="Path"></path>
                        <path d="M56.3770729,47.6273958 C56.9379687,47.6273958 57.3926979,47.1726667 57.3926979,46.6117708 C57.3926979,46.050875 56.9379687,45.5961458 56.3770729,45.5961458 L55.2915729,45.5961458 C54.7306771,45.5961458 54.2759479,46.050875 54.2759479,46.6117708 C54.2759479,47.1726667 54.7306771,47.6273958 55.2915729,47.6273958 L56.3770729,47.6273958 Z" id="Path"></path>
                        <path d="M47.6929375,47.6273958 L48.7784375,47.6273958 C49.3393333,47.6273958 49.7940625,47.1726667 49.7940625,46.6117708 C49.7940625,46.050875 49.3393333,45.5961458 48.7784375,45.5961458 L47.6929375,45.5961458 C47.1320417,45.5961458 46.6773125,46.050875 46.6773125,46.6117708 C46.6773125,47.1726667 47.1320417,47.6273958 47.6929375,47.6273958 Z" id="Path"></path>
                        <path d="M68.7178646,16.3693021 C61.6607604,13.3447708 59.5314688,7.27052083 59.5116979,7.21188542 C59.4043125,6.88972917 59.1429583,6.64259375 58.8153854,6.55321875 L34.9339792,0.04021875 C34.7590208,-0.00758333333 34.5744479,-0.00758333333 34.3994896,0.04021875 L10.5180833,6.55335417 C10.1922708,6.6421875 9.93105208,6.88972917 9.82258333,7.20958333 C9.80186458,7.27052083 7.67270833,13.3449063 0.61546875,16.3694375 C0.191614583,16.5511667 -0.0566041667,16.9956042 0.01096875,17.4518229 C0.0561979167,17.7575938 1.17501042,25.0491042 5.9418125,34.5827083 C8.737625,40.1743333 12.2155313,45.3706771 16.2785729,50.0273854 C21.3580521,55.8488125 27.3704167,60.8371563 34.1486979,64.8538854 C34.3083542,64.9485417 34.487375,64.9958021 34.6665313,64.9958021 C34.8455521,64.9958021 35.0247083,64.9485417 35.1843646,64.8538854 C37.4700625,63.4993125 39.6936042,62.0183958 41.7929688,60.4523021 C42.2425521,60.116875 42.3350417,59.4805521 41.9996146,59.0308333 C41.6643229,58.5813854 41.0278646,58.4887604 40.5782813,58.8240521 C38.6949063,60.229 36.7086146,61.5636667 34.6663958,62.7966354 C28.3007292,58.9537813 22.6432917,54.2240833 17.8433125,48.7310417 C13.8960521,44.2140833 10.5151042,39.1725208 7.79444792,33.7461042 C4.40605208,26.9881354 2.70454167,20.830875 2.14892708,17.9051979 C8.35466667,14.9594792 10.86475,10.0025521 11.5465729,8.37809375 L34.6666667,2.07282292 L57.7864896,8.37822917 C58.4680417,10.0022813 60.9762292,14.9562292 67.1777708,17.9023542 C66.7596042,20.0265 65.2688021,26.442 61.3040729,34.2096354 C61.0490833,34.7091875 61.2473333,35.321 61.7470208,35.5759896 C62.2467083,35.8309792 62.85825,35.6325937 63.113375,35.1330417 C68.1133646,25.3368646 69.275375,17.7691042 69.3223646,17.4516875 C69.3899375,16.9954687 69.1417188,16.5510312 68.7178646,16.3693021 L68.7178646,16.3693021 Z" id="Path"></path>
                        <path d="M53.3457708,13.9179896 C54.5597812,15.8983229 56.5908958,18.5772708 59.7153646,20.95275 C58.9016458,23.6662292 57.4855937,27.6090208 55.1583229,32.0263125 C54.8968333,32.5226146 55.0872292,33.1368646 55.5833958,33.3982187 C56.0795625,33.6597083 56.6938125,33.4693125 56.9553021,32.9731458 C59.5647812,28.0206875 61.0660104,23.6392812 61.8659167,20.8358854 C61.9835937,20.4234062 61.8294896,19.9814062 61.4809271,19.7315625 C58.1123021,17.3178958 56.0325729,14.4828125 54.881125,12.5295625 C54.7467917,12.3016562 54.5286354,12.1350937 54.273375,12.0654896 L34.9506354,6.79575 C34.8596354,6.76920833 34.7644375,6.755125 34.6673437,6.755125 C34.6672083,6.755125 34.6669375,6.755125 34.6668021,6.755125 C34.5701146,6.75620833 34.474375,6.76907292 34.383375,6.79561458 L15.0600937,12.065625 C14.8048333,12.1352292 14.5868125,12.3017917 14.4523437,12.5296979 C13.300625,14.4833542 11.2203542,17.3188437 7.85132292,19.7325104 C7.502625,19.9823542 7.34852083,20.4242187 7.46619792,20.8366979 C8.58419792,24.7551146 10.7849896,30.8064792 14.9208854,37.3840729 C19.8661667,45.2489375 26.3189062,51.8899062 34.0998125,57.1225417 C34.27125,57.2377812 34.4689583,57.2953333 34.6666667,57.2953333 C34.864375,57.2953333 35.0620833,57.2377812 35.2335208,57.1225417 C35.9770937,56.6224479 36.7186354,56.1023125 37.4372917,55.5767604 C37.8899896,55.2456667 37.9887083,54.6101562 37.6576146,54.1574583 C37.3263854,53.704625 36.6910104,53.6061771 36.2383125,53.9371354 C36.0549583,54.0713333 35.8684896,54.2043125 35.6824271,54.3374271 L35.6824271,9.1008125 L53.3457708,13.9179896 Z M16.6405417,36.3027708 C12.8626875,30.2943333 10.752625,24.7460417 9.61675,20.9536979 C12.741625,18.5782187 14.7732813,15.8987292 15.9875625,13.9179896 L33.6510417,9.1008125 L33.6510417,54.3376979 C26.8116875,49.4449583 21.0945312,43.3861458 16.6405417,36.3027708 Z" id="Shape"></path>
                    </g>
                </g>
            </g>
        </g>
    </g>
</svg>