<?xml version="1.0" encoding="UTF-8"?>
<svg width="60px" height="50px" viewBox="0 0 60 50" version="1.1" xmlns="http://www.w3.org/2000/svg" xmlns:xlink="http://www.w3.org/1999/xlink">
    <!-- Generator: sketchtool 63.1 (101010) - https://sketch.com -->
    <title>F218C39C-0DE7-4E79-8CDB-A60BA5B6B205</title>
    <desc>Created with sketchtool.</desc>
    <g id="Page-1" stroke="none" stroke-width="1" fill="none" fill-rule="evenodd">
        <g id="Covid---update" transform="translate(-945.000000, -2053.000000)" fill-rule="nonzero">
            <g id="Group-38" transform="translate(165.000000, 1194.000000)">
                <g id="Group-32" transform="translate(0.000000, 848.000000)">
                    <g id="Quarantine-rules" transform="translate(781.000000, 12.000000)">
                        <path d="M7.7890625,0 C9.45187813,0 10.9594438,0.676821471 12.0514674,1.76884506 C13.143491,2.86086865 13.8203125,4.36843438 13.8203125,6.03125 C13.8203125,7.69406563 13.143491,9.20163135 12.0514674,10.2936549 C10.9594438,11.3856785 9.45187813,12.0625 7.7890625,12.0625 C6.12624688,12.0625 4.61868115,11.3856785 3.52665756,10.2936549 C2.43463397,9.20163135 1.7578125,7.69406562 1.7578125,6.03125 C1.7578125,4.36843438 2.43463397,2.86086865 3.52665756,1.76884506 C4.61868115,0.676821471 6.12624687,0 7.7890625,0 Z M7.7890625,1.515625 C6.54410469,1.515625 5.41495166,2.02163556 4.59719986,2.83938736 C3.77944806,3.65713916 3.2734375,4.78629219 3.2734375,6.03125 C3.2734375,7.27620781 3.77944806,8.40536084 4.59719986,9.22311264 C5.41495166,10.0408644 6.54410469,10.546875 7.7890625,10.546875 C9.03402031,10.546875 10.1631733,10.0408644 10.9809251,9.22311264 C11.7986769,8.40536084 12.3046875,7.27620781 12.3046875,6.03125 C12.3046875,4.78629219 11.7986769,3.65713916 10.9809251,2.83938736 C10.1631733,2.02163556 9.03402031,1.515625 7.7890625,1.515625 Z" id="Shape" stroke="#38B2AC" stroke-width="1.5" fill="#000000"></path>
                        <path d="M7.7890625,14.0625 C9.93650703,14.0625 11.8835259,14.9364601 13.2938454,16.3467796 C14.7041649,17.7570991 15.578125,19.704118 15.578125,21.8515625 L15.578125,21.8515625 L15.578125,32.3984375 C15.578125,32.6076948 15.493292,32.7971429 15.3561549,32.9342799 C15.2190179,33.071417 15.0295698,33.15625 14.8203125,33.15625 L14.8203125,33.15625 L12.0625,33.15625 L12.0625,45.703125 L14.8203125,45.703125 C15.0295698,45.703125 15.2190179,45.787958 15.3561549,45.9250951 C15.493292,46.0622321 15.578125,46.2516802 15.578125,46.4609375 C15.578125,46.6701948 15.493292,46.8596429 15.3561549,46.9967799 C15.2190179,47.133917 15.0295698,47.21875 14.8203125,47.21875 L14.8203125,47.21875 L4.2734375,47.21875 C4.06418021,47.21875 3.87473213,47.133917 3.73759506,46.9967799 C3.600458,46.8596429 3.515625,46.6701948 3.515625,46.4609375 L3.515625,46.4609375 L3.515625,33.15625 L0.7578125,33.15625 C0.548555208,33.15625 0.359107129,33.071417 0.221970062,32.9342799 C0.0848329958,32.7971429 0,32.6076948 0,32.3984375 L0,32.3984375 L0,21.8515625 C0,19.704118 0.873960143,17.7570991 2.28427963,16.3467796 C3.69459912,14.9364601 5.64161797,14.0625 7.7890625,14.0625 Z M7.7890625,15.578125 C6.05947578,15.578125 4.49086963,16.2812742 3.35482193,17.4173219 C2.21877423,18.5533696 1.515625,20.1219758 1.515625,21.8515625 L1.515625,31.640625 L4.2734375,31.640625 C4.48269479,31.640625 4.67214287,31.725458 4.80927994,31.8625951 C4.946417,31.9997321 5.03125,32.1891802 5.03125,32.3984375 L5.03125,45.703125 L10.546875,45.703125 L10.546875,32.3984375 C10.546875,32.1891802 10.631708,31.9997321 10.7688451,31.8625951 C10.9059821,31.725458 11.0954302,31.640625 11.3046875,31.640625 L14.0625,31.640625 L14.0625,21.8515625 C14.0625,20.1219758 13.3593508,18.5533696 12.2233031,17.4173219 C11.0872554,16.2812742 9.51864922,15.578125 7.7890625,15.578125 Z" id="Shape" stroke="#38B2AC" stroke-width="1.5" fill="#000000"></path>
                        <path d="M50.2109375,0 C51.8737531,0 53.3813188,0.676821471 54.4733424,1.76884506 C55.565366,2.86086865 56.2421875,4.36843438 56.2421875,6.03125 C56.2421875,7.69406562 55.565366,9.20163135 54.4733424,10.2936549 C53.3813188,11.3856785 51.8737531,12.0625 50.2109375,12.0625 C48.5481219,12.0625 47.0405562,11.3856785 45.9485326,10.2936549 C44.856509,9.20163135 44.1796875,7.69406563 44.1796875,6.03125 C44.1796875,4.36843437 44.856509,2.86086865 45.9485326,1.76884506 C47.0405562,0.676821471 48.5481219,0 50.2109375,0 Z M50.2109375,1.515625 C48.9659797,1.515625 47.8368267,2.02163556 47.0190749,2.83938736 C46.2013231,3.65713916 45.6953125,4.78629219 45.6953125,6.03125 C45.6953125,7.27620781 46.2013231,8.40536084 47.0190749,9.22311264 C47.8368267,10.0408644 48.9659797,10.546875 50.2109375,10.546875 C51.4558953,10.546875 52.5850483,10.0408644 53.4028001,9.22311264 C54.2205519,8.40536084 54.7265625,7.27620781 54.7265625,6.03125 C54.7265625,4.78629219 54.2205519,3.65713916 53.4028001,2.83938736 C52.5850483,2.02163556 51.4558953,1.515625 50.2109375,1.515625 Z" id="Shape" stroke="#38B2AC" stroke-width="1.5" fill="#000000"></path>
                        <path d="M50.2109375,14.0625 C52.358382,14.0625 54.3054009,14.9364601 55.7157204,16.3467796 C57.1260399,17.7570991 58,19.704118 58,21.8515625 L58,21.8515625 L58,32.3984375 C58,32.6076948 57.915167,32.7971429 57.7780299,32.9342799 C57.6408929,33.071417 57.4514448,33.15625 57.2421875,33.15625 L57.2421875,33.15625 L54.484375,33.15625 L54.484375,46.4609375 C54.484375,46.6701948 54.399542,46.8596429 54.2624049,46.9967799 C54.1252679,47.133917 53.9358198,47.21875 53.7265625,47.21875 L53.7265625,47.21875 L43.1796875,47.21875 C42.9704302,47.21875 42.7809821,47.133917 42.6438451,46.9967799 C42.506708,46.8596429 42.421875,46.6701948 42.421875,46.4609375 C42.421875,46.2516802 42.506708,46.0622321 42.6438451,45.9250951 C42.7809821,45.787958 42.9704302,45.703125 43.1796875,45.703125 L43.1796875,45.703125 L45.9375,45.703125 L45.9375,33.15625 L43.1796875,33.15625 C42.9704302,33.15625 42.7809821,33.071417 42.6438451,32.9342799 C42.506708,32.7971429 42.421875,32.6076948 42.421875,32.3984375 L42.421875,32.3984375 L42.421875,21.8515625 C42.421875,19.704118 43.2958351,17.7570991 44.7061546,16.3467796 C46.1164741,14.9364601 48.063493,14.0625 50.2109375,14.0625 Z M50.2109375,15.578125 C48.4813508,15.578125 46.9127446,16.2812742 45.7766969,17.4173219 C44.6406492,18.5533696 43.9375,20.1219758 43.9375,21.8515625 L43.9375,31.640625 L46.6953125,31.640625 C46.9045698,31.640625 47.0940179,31.725458 47.2311549,31.8625951 C47.368292,31.9997321 47.453125,32.1891802 47.453125,32.3984375 L47.453125,45.703125 L52.96875,45.703125 L52.96875,32.3984375 C52.96875,32.1891802 53.053583,31.9997321 53.1907201,31.8625951 C53.3278571,31.725458 53.5173052,31.640625 53.7265625,31.640625 L56.484375,31.640625 L56.484375,21.8515625 C56.484375,20.1219758 55.7812258,18.5533696 54.6451781,17.4173219 C53.5091304,16.2812742 51.9405242,15.578125 50.2109375,15.578125 Z" id="Shape" stroke="#38B2AC" stroke-width="1.5" fill="#000000"></path>
                        <path d="M25.484375,48.21875 C26.4551562,48.21875 27.2421875,47.4317188 27.2421875,46.4609375 C27.2421875,45.4901562 26.4551562,44.703125 25.484375,44.703125 L21.8515625,44.703125 C20.8807813,44.703125 20.09375,45.4901562 20.09375,46.4609375 C20.09375,47.4317188 20.8807813,48.21875 21.8515625,48.21875 L25.484375,48.21875 Z" id="Path" fill="#38B2AC"></path>
                        <path d="M36.1484375,48.21875 C37.1192188,48.21875 37.90625,47.4317188 37.90625,46.4609375 C37.90625,45.4901562 37.1192188,44.703125 36.1484375,44.703125 L32.515625,44.703125 C31.5448438,44.703125 30.7578125,45.4901562 30.7578125,46.4609375 C30.7578125,47.4317188 31.5448438,48.21875 32.515625,48.21875 L36.1484375,48.21875 Z" id="Path" fill="#38B2AC"></path>
                    </g>
                </g>
            </g>
        </g>
    </g>
</svg>