<?xml version="1.0" encoding="UTF-8"?>
<svg width="67px" height="67px" viewBox="0 0 67 67" version="1.1" xmlns="http://www.w3.org/2000/svg" xmlns:xlink="http://www.w3.org/1999/xlink">
    <!-- Generator: sketchtool 63.1 (101010) - https://sketch.com -->
    <title>4F628393-F905-4171-B83A-391C8493A86B</title>
    <desc>Created with sketchtool.</desc>
    <g id="Page-1" stroke="none" stroke-width="1" fill="none" fill-rule="evenodd">
        <g id="Covid" transform="translate(-972.000000, -850.000000)" fill="#38B2AC" fill-rule="nonzero" stroke="#38B2AC" stroke-width="0.7">
            <g id="Group-20" transform="translate(165.000000, 723.000000)">
                <g id="Group-15" transform="translate(760.000000, 80.000000)">
                    <g id="Group-12">
                        <g id="ico-restaurant" transform="translate(48.000000, 48.000000)">
                            <path d="M62.7050993,53.7551188 L37.9427601,32.1817075 L41.7439297,27.823033 C45.3114145,29.95791 49.9012092,29.1857127 52.5737153,26.0010057 L61.3321169,15.5422143 C64.1581533,12.2537012 64.0980063,7.37679467 61.191727,4.15897846 C58.1236989,0.863992511 53.0137459,0.54580336 49.5606549,3.43472894 L38.91738,12.3461909 C35.7323993,15.0187577 34.9601823,19.6088844 37.0953527,23.1764833 L32.3499726,27.3106354 L29.2715321,24.6280233 C31.4058212,21.0599429 30.6325333,16.4700496 27.4469707,13.7982377 L22.6737153,9.79788684 L13.6309863,0.755157793 C12.9881276,0.106171577 12.0471181,-0.149163164 11.164389,0.0858681364 C10.2816599,0.320899437 9.59220548,1.01035387 9.35717418,1.89308294 C9.12214288,2.77581201 9.37747762,3.71682158 10.0264638,4.35968021 L17.888803,12.223033 C18.1799125,12.4919716 18.2301504,12.9335479 18.0068927,13.2610057 C17.8771136,13.4222816 17.6849133,13.5208089 17.4782089,13.5320239 C17.2715044,13.5432389 17.0697723,13.466085 16.9233059,13.3197972 L8.99507982,5.39106423 C7.99985839,4.3958428 6.38628565,4.3958428 5.39106423,5.39106423 C4.3958428,6.38628565 4.3958428,7.99985839 5.39106423,8.99507982 L13.2534034,16.8579258 C13.5445558,17.1268945 13.5945947,17.5686172 13.3709863,17.8958985 C13.2412237,18.0572464 13.0489578,18.1557847 12.8422025,18.1669058 C12.6354471,18.1780268 12.4337206,18.1006808 12.2873995,17.9541831 L4.35968021,10.0264638 C3.71682158,9.37747762 2.77581201,9.12214288 1.89308294,9.35717418 C1.01035387,9.59220548 0.320899437,10.2816599 0.0858681364,11.164389 C-0.149163164,12.0471181 0.106171577,12.9881276 0.755157793,13.6309863 L9.79788684,22.6737153 L13.7982377,27.4505184 C16.4700496,30.636081 21.0599429,31.4093689 24.6280233,29.2750798 L26.988803,31.9845535 L3.66482641,52.3081402 C1.66963522,54.0459233 0.96262744,56.8395806 1.89098981,59.317245 C2.81935218,61.7949094 5.18807011,63.4361153 7.83394922,63.4349239 C7.90591803,63.4349239 7.97788684,63.4349239 8.04985565,63.4308693 C9.80622571,63.3679495 11.4584041,62.5815735 12.6148069,61.2581208 L32.5527017,38.3684911 L53.7551188,62.7050993 C54.9112001,64.0287623 56.5632495,64.8153477 58.3195633,64.8783547 C58.3915321,64.8808888 58.4635009,64.8819028 58.5354697,64.8819028 C61.1811576,64.8827405 63.5495737,63.2415797 64.4779679,60.7641315 C65.4063621,58.2866833 64.6997753,55.4932019 62.7050993,53.7551188 L62.7050993,53.7551188 Z M28.3263079,30.817341 L25.4536373,27.5199531 C25.149726,27.1708016 24.6284126,27.1140795 24.2565223,27.3896997 C21.4155967,29.4913799 17.4297743,29.0195732 15.1580428,26.3127017 L11.1328576,21.5065028 C11.1161854,21.4862878 11.0984201,21.4669998 11.0796412,21.448725 L2.00954376,12.3750798 C1.86414315,12.2298247 1.78244569,12.0327292 1.78244569,11.8272046 C1.78244569,11.6216799 1.86414315,11.4245844 2.00954376,11.2793293 C2.31620426,10.9867554 2.79863374,10.9867554 3.10529425,11.2793293 L11.0330135,19.2085691 C11.5338293,19.7093134 12.2233209,19.9744805 12.9306088,19.9383529 C13.6378966,19.9022254 14.2967813,19.5681847 14.7439687,19.0190174 C15.5428723,17.9853118 15.4411327,16.5171689 14.5072825,15.6035399 L6.64494337,7.74120068 C6.49938754,7.59592515 6.41759152,7.39872094 6.41759152,7.19307202 C6.41759152,6.9874231 6.49938754,6.79021889 6.64494337,6.64494337 C6.95170714,6.35262734 7.43393009,6.35262734 7.74069386,6.64494337 L15.6694268,14.5726627 C16.170098,15.0736157 16.8595835,15.338974 17.5669217,15.3029406 C18.2742598,15.2669071 18.93321,14.9328563 19.380382,14.3836178 C20.1792855,13.3499122 20.077546,11.8817693 19.1436958,10.9681402 L11.2808498,3.10529425 C11.1354492,2.96003917 11.0537517,2.76294363 11.0537517,2.557419 C11.0537517,2.35189437 11.1354492,2.15479884 11.2808498,2.00954376 C11.5874067,1.71671129 12.0700434,1.71671129 12.3766003,2.00954376 L21.448725,11.0816685 C21.4669998,11.1004473 21.4862878,11.1182127 21.5065028,11.1348849 L26.3127017,15.1580428 C29.0200618,17.4293393 29.4925406,21.4152128 27.3912202,24.2565223 C27.1156,24.6284126 27.1723221,25.149726 27.5214736,25.4536373 L31.0028381,28.4869707 L29.4119219,29.8731305 L28.3263079,30.817341 Z M11.277302,60.0883742 C10.1556987,61.3767657 8.40919317,61.9320834 6.74946507,61.5280422 C5.08973696,61.124001 3.79389835,59.8280606 3.38998763,58.1683007 C2.98607691,56.5085408 3.54153194,54.7620789 4.83001159,53.6405769 L30.5304794,31.2501675 L32.9343391,29.1554697 L38.8499726,24.0015905 C39.1985894,23.6976121 39.2552756,23.1768482 38.980226,22.8049824 C36.8806176,19.9633148 37.352708,15.978845 40.0582377,13.7065028 L50.7015126,4.79504083 C53.4298445,2.51035384 57.4692508,2.76135516 59.8937543,5.36622992 C62.1909206,7.92864326 62.2245755,11.7993875 59.9723118,14.4013566 L51.2113761,24.860148 C48.9403702,27.5677541 44.9542843,28.0400623 42.1134034,25.9381597 C41.7418014,25.662481 41.2206728,25.7189863 40.9167952,26.0679063 L36.0239297,31.6850213 L31.8852163,36.4359765 L11.277302,60.0883742 Z M61.7695048,61.7695048 C60.8740641,62.6652439 59.6469821,63.1491011 58.3811749,63.1055751 C57.1153676,63.0620492 55.9244205,62.4950459 55.0926237,61.5399141 L33.7290369,37.0183157 L36.5890369,33.7356256 L36.7775749,33.5192124 L61.5399141,55.0926237 C62.4950459,55.9244205 63.0620492,57.1153676 63.1055751,58.3811749 C63.1491011,59.6469821 62.6652439,60.8740641 61.7695048,61.7695048 Z" id="Shape"></path>
                        </g>
                    </g>
                </g>
            </g>
        </g>
    </g>
</svg>