<svg version="1.1" width="60" height="60" viewBox="0 0 100 100" xmlns="http://www.w3.org/2000/svg">
 <path d="m90 22.5h-10.9c0.55-1.55 0.9-3.25 0.9-5 0-8.3-6.7-15-15-15-5.25 0-9.8 2.7-12.5 6.75l-2.5 3.35-2.5-3.4c-2.7-4-7.25-6.7-12.5-6.7-8.3 0-15 6.7-15 15 0 1.75 0.35 3.45 0.9 5h-10.9c-5.55 0-9.95 4.45-9.95 10l-0.05 55c0 5.55 4.45 10 10 10h80c5.55 0 10-4.45 10-10v-55c0-5.55-4.45-10-10-10zm-25-10c2.75 0 5 2.25 5 5s-2.25 5-5 5-5-2.25-5-5 2.25-5 5-5zm-30 0c2.75 0 5 2.25 5 5s-2.25 5-5 5-5-2.25-5-5 2.25-5 5-5zm55 75h-80v-10h80zm0-25h-80v-30h25.4l-10.4 14.15 8.1 5.85 11.9-16.2 5-6.8 5 6.8 11.9 16.2 8.1-5.85-10.4-14.15h25.4z" stroke-width="5"/>
 <path d="m0 76h24v24h-24z" fill="none"/>
</svg>
