<?xml version="1.0" encoding="UTF-8"?>
<svg width="55px" height="65px" viewBox="0 0 55 65" version="1.1" xmlns="http://www.w3.org/2000/svg" xmlns:xlink="http://www.w3.org/1999/xlink">
    <!-- Generator: sketchtool 63.1 (101010) - https://sketch.com -->
    <title>8E40C0C7-5439-47DE-B2F9-3C21B7195CE7</title>
    <desc>Created with sketchtool.</desc>
    <g id="Page-1" stroke="none" stroke-width="1" fill="none" fill-rule="evenodd">
        <g id="Covid" transform="translate(-788.000000, -850.000000)" fill="#38B2AC" fill-rule="nonzero">
            <g id="Group-20" transform="translate(165.000000, 723.000000)">
                <g id="Group-16" transform="translate(570.000000, 80.000000)">
                    <g id="Group-11">
                        <g id="ico-retailer" transform="translate(53.000000, 47.000000)">
                            <path d="M36.5855523,7.95741279 C35.938343,3.42119186 31.9898547,0 27.4015116,0 C24.4506977,0 21.6482558,1.42392442 19.905843,3.81034884 C19.5499419,4.29703488 19.6564244,4.97973837 20.1431105,5.33563953 C20.6281977,5.69026163 21.3125,5.58505814 21.6677616,5.09773256 C23.0015116,3.27281977 25.144593,2.18305233 27.4011919,2.18305233 C30.9103198,2.18305233 33.9292442,4.79811047 34.4242442,8.26534884 C34.5022674,8.80991279 34.9694477,9.20290698 35.5037791,9.20290698 C35.5546221,9.20290698 35.607064,9.19906977 35.659186,9.19203488 C36.2558721,9.10665698 36.6706105,8.55377907 36.5855523,7.95741279 Z" id="Path"></path>
                            <path d="M52.3497674,20.1760465 L49.0753488,14.7185756 C48.8783721,14.3895349 48.5231105,14.1887209 48.1393895,14.1887209 L45.0015116,14.1887209 C44.3990698,14.1887209 43.9101453,14.6776453 43.9101453,15.2800872 C43.9101453,15.8825291 44.3990698,16.3714535 45.0015116,16.3714535 L47.5215988,16.3714535 L49.48625,19.6458721 L5.31645349,19.6458721 L7.28110465,16.3714535 L8.43706395,16.3714535 C9.03950581,16.3714535 9.52843023,15.8825291 9.52843023,15.2800872 C9.52843023,14.6776453 9.03950581,14.1887209 8.43706395,14.1887209 L6.66331395,14.1887209 C6.27959302,14.1887209 5.9243314,14.3895349 5.72735465,14.7185756 L2.45293605,20.1760465 C2.25052326,20.5137209 2.24572674,20.9335756 2.43918605,21.2757267 C2.63264535,21.6178779 2.99526163,21.829564 3.38889535,21.829564 L51.4138081,21.829564 C51.8074419,21.829564 52.1697384,21.6178779 52.3635174,21.2757267 C52.5572965,20.9335756 52.5521802,20.5130814 52.3497674,20.1760465 Z" id="Path"></path>
                            <path d="M46.9092442,10.1120058 C46.7563953,9.86546512 46.5124128,9.69055233 46.2303779,9.62468023 L31.3512791,6.14465116 C31.069564,6.0784593 30.7728198,6.12770349 30.5265988,6.27991279 C30.2810174,6.43276163 30.1057849,6.67674419 30.0399128,6.95877907 L28.9178488,11.7552907 C28.7803488,12.342064 29.1448837,12.929157 29.7319767,13.0660174 C30.31875,13.2035174 30.9064826,12.8389826 31.043343,12.2518895 L31.9169477,8.51860465 L44.6702326,11.5017151 L42.66625,20.0698837 C42.52875,20.656657 42.8932849,21.24375 43.4803779,21.3806105 C43.5644767,21.4001163 43.647936,21.4093895 43.730436,21.4093895 C44.2260756,21.4093895 44.6747093,21.0697965 44.7914244,20.5668023 L47.044186,10.9360465 C47.1106977,10.6543314 47.062093,10.3575872 46.9092442,10.1120058 Z" id="Path"></path>
                            <path d="M27.9786919,12.6922093 L26.9842151,4.28072674 C26.9503198,3.99325581 26.8035465,3.73072674 26.5758721,3.55165698 C26.3481977,3.37258721 26.0607267,3.29072674 25.7719767,3.32462209 L7.51645349,5.48241279 C6.9181686,5.55340116 6.49031977,6.09572674 6.56098837,6.69465116 L8.21898256,20.7238081 C8.28485465,21.2792442 8.75587209,21.6875872 9.30171512,21.6875872 C9.34424419,21.6875872 9.38805233,21.6847093 9.4315407,21.6799128 C10.0295058,21.6089244 10.4573547,21.0665988 10.3870058,20.4676744 L8.8569186,7.52156977 L24.9447384,5.62023256 L25.8106686,12.9477035 C25.881657,13.5463081 26.4214244,13.9715988 27.022907,13.9038081 C27.6211919,13.8334593 28.0490407,13.290814 27.9786919,12.6922093 Z" id="Path"></path>
                            <path d="M36.610814,20.3231395 L34.4443895,11.3140116 C34.3765988,11.032936 34.1997674,10.789593 33.9532267,10.638343 C33.706686,10.4883721 33.4109012,10.4413663 33.127907,10.5085174 L15.5448547,14.7371221 C14.9587209,14.8778198 14.5980233,15.4674709 14.7387209,16.0536047 L15.8214535,20.5565698 C15.9621512,21.143343 16.5518023,21.5043605 17.1376163,21.3627035 C17.72375,21.2220058 18.0844477,20.6323547 17.94375,20.0462209 L17.1158721,16.6042442 L32.5766279,12.8866279 L34.4878779,20.8341279 C34.6077907,21.334564 35.0554651,21.6703198 35.5482267,21.6703198 C35.6329651,21.6703198 35.7186628,21.660407 35.8046802,21.6396221 C36.390814,21.4986047 36.7515116,20.9092733 36.610814,20.3231395 Z" id="Path"></path>
                            <path d="M52.5048547,20.6822384 C52.4747965,20.1021802 51.9957849,19.6468314 51.4144477,19.6468314 L3.38953488,19.6468314 C2.80819767,19.6468314 2.32918605,20.1018605 2.29912791,20.6822384 L0.116075581,63.2496802 C0.100726744,63.548343 0.20880814,63.8406105 0.414738372,64.0574128 C0.620988372,64.2738953 0.906860465,64.3970058 1.20616279,64.3970058 L53.5968605,64.3970058 C53.895843,64.3970058 54.1820349,64.2742151 54.3892442,64.0574128 C54.5948547,63.8406105 54.702936,63.5486628 54.687907,63.2496802 L52.5048547,20.6822384 Z M2.35476744,62.2139535 L4.42590116,21.829564 L50.3768023,21.829564 L52.447936,62.2139535 L2.35476744,62.2139535 Z" id="Shape"></path>
                            <path d="M35.5875581,24.0122965 C33.7818314,24.0122965 32.3131395,25.4809884 32.3131395,27.2867151 C32.3131395,29.0924419 33.7818314,30.5611337 35.5875581,30.5611337 C37.3932849,30.5611337 38.8619767,29.0924419 38.8619767,27.2867151 C38.8619767,25.4809884 37.3932849,24.0122965 35.5875581,24.0122965 Z M35.5875581,28.3784012 C34.985436,28.3784012 34.4961919,27.8888372 34.4961919,27.2870349 C34.4961919,26.6852326 34.9857558,26.1956686 35.5875581,26.1956686 C36.1893605,26.1956686 36.6789244,26.6852326 36.6789244,27.2870349 C36.6789244,27.8888372 36.1893605,28.3784012 35.5875581,28.3784012 Z" id="Shape"></path>
                            <path d="M19.2154651,24.0122965 C17.4097384,24.0122965 15.9410465,25.4809884 15.9410465,27.2867151 C15.9410465,29.0924419 17.4097384,30.5611337 19.2154651,30.5611337 C21.0211919,30.5611337 22.4898837,29.0924419 22.4898837,27.2867151 C22.4898837,25.4809884 21.0211919,24.0122965 19.2154651,24.0122965 Z M19.2154651,28.3784012 C18.6136628,28.3784012 18.1240988,27.8888372 18.1240988,27.2870349 C18.1240988,26.6852326 18.6136628,26.1956686 19.2154651,26.1956686 C19.8172674,26.1956686 20.3068314,26.6852326 20.3068314,27.2870349 C20.3068314,27.8888372 19.8172674,28.3784012 19.2154651,28.3784012 Z" id="Shape"></path>
                            <path d="M35.5875581,27.2867151 L35.5034593,27.2867151 C34.9010174,27.2867151 34.412093,27.7756395 34.412093,28.3780814 C34.412093,28.527093 34.4415116,28.6693895 34.4961919,28.7988953 L34.4961919,34.3810756 C34.4961919,38.2927907 31.3135465,41.4757558 27.4015116,41.4757558 C23.4894767,41.4757558 20.3068314,38.2931105 20.3068314,34.3810756 L20.3068314,28.3784012 C20.3068314,27.7759593 19.817907,27.2870349 19.2154651,27.2870349 C18.6130233,27.2870349 18.1240988,27.7759593 18.1240988,28.3784012 L18.1240988,34.3813953 C18.1240988,39.4970349 22.2858721,43.6588081 27.4015116,43.6588081 C32.5171512,43.6588081 36.6789244,39.4970349 36.6789244,34.3813953 L36.6789244,28.3784012 C36.6789244,27.7759593 36.19,27.2867151 35.5875581,27.2867151 Z" id="Path"></path>
                        </g>
                    </g>
                </g>
            </g>
        </g>
    </g>
</svg>