<?xml version="1.0" encoding="UTF-8"?>
<svg width="94px" height="68px" viewBox="0 0 94 68" version="1.1" xmlns="http://www.w3.org/2000/svg" xmlns:xlink="http://www.w3.org/1999/xlink">
    <!-- Generator: sketchtool 63.1 (101010) - https://sketch.com -->
    <title>F3D340D8-6598-4088-B091-6E6357144F80</title>
    <desc>Created with sketchtool.</desc>
    <g id="Page-1" stroke="none" stroke-width="1" fill="none" fill-rule="evenodd">
        <g id="Covid---update" transform="translate(-944.000000, -3133.000000)" fill="#FFFFFF" fill-rule="nonzero">
            <g id="Group-37" transform="translate(0.000000, 2962.000000)">
                <g id="Group-36" transform="translate(945.000000, 172.000000)">
                    <g id="Group-34" transform="translate(66.000000, 0.000000)" stroke="#FFFFFF" stroke-width="0.5">
                        <path d="M9.41327886,7.32972465 C9.41327886,6.75399012 9.88007938,6.28729385 10.4557097,6.28729385 L13.0025766,6.28729385 C13.5782069,6.28729385 14.0450074,6.75399012 14.0450074,7.32972465 C14.0450074,7.90545918 13.5782069,8.37215545 13.0025766,8.37215545 L10.4557097,8.37215545 C9.88007938,8.37215545 9.41327886,7.90545918 9.41327886,7.32972465 Z" id="Path"></path>
                        <path d="M6.65563242,3.14280134 L7.44256344,0.720609133 C7.62040213,0.173124476 8.20854159,-0.126574379 8.75613049,0.0512643158 C9.30371939,0.22910301 9.603314,0.817242468 9.4254753,1.36483137 L8.63854429,3.78702358 C8.4607056,4.33450823 7.87256614,4.63420709 7.32497724,4.45636839 C6.77738834,4.2785297 6.47768949,3.690286 6.65563242,3.14280134 Z" id="Path"></path>
                        <path d="M0.199754233,2.83142726 C0.538127271,2.36566918 1.19006349,2.26246853 1.65582158,2.60084157 L3.7162903,4.09787644 C4.18204838,4.43624948 4.28535327,5.0881857 3.94687599,5.55394378 C3.60850295,6.01970186 2.95656673,6.12290251 2.49080865,5.78452948 L0.430339927,4.2874946 C-0.0353139121,3.94912157 -0.138618804,3.29718534 0.199754233,2.83142726 Z" id="Path"></path>
                        <path d="M8.63864854,10.8730512 L9.42568379,13.2952434 C9.60362673,13.8427281 9.30392787,14.4308675 8.75644322,14.6088104 C8.20885432,14.7867534 7.6208191,14.4870545 7.44287617,13.9395699 L6.65584091,11.5173777 C6.47789797,10.969893 6.77759683,10.3817535 7.32508148,10.2038106 C7.87256614,10.0258677 8.4607056,10.3255665 8.63864854,10.8730512 Z" id="Path"></path>
                        <path d="M0.199128775,11.8285433 C-0.139244263,11.3627852 -0.0359393706,10.710849 0.429714468,10.3724759 L2.49018319,8.87544104 C2.95594127,8.53706801 3.60787749,8.64026865 3.94625053,9.10602674 C4.28462357,9.57178482 4.18131868,10.223721 3.71566484,10.5620941 L1.65519612,12.059129 C1.18943804,12.397502 0.537501813,12.2943013 0.199128775,11.8285433 Z" id="Path"></path>
                    </g>
                    <g id="Group-34" transform="translate(7.000000, 5.000000)" stroke="#FFFFFF" stroke-width="0.5">
                        <path d="M7.28657512,5.67374982 C7.28657512,5.22808865 7.6479133,4.86683117 8.09349378,4.86683117 L10.0649574,4.86683117 C10.5105379,4.86683117 10.8718761,5.22808865 10.8718761,5.67374982 C10.8718761,6.119411 10.5105379,6.48066848 10.0649574,6.48066848 L8.09349378,6.48066848 C7.6479133,6.48066848 7.28657512,6.119411 7.28657512,5.67374982 Z" id="Path"></path>
                        <path d="M5.15195251,2.43276104 L5.7610954,0.557804847 C5.89875572,0.134011169 6.35401923,-0.0979779451 6.7778936,0.0396823778 C7.20176797,0.177342701 7.43367639,0.632606207 7.29601607,1.05648058 L6.68687318,2.93143677 C6.54921285,3.35523045 6.09394935,3.58721956 5.67007498,3.44955924 C5.24620061,3.31189891 5.01421149,2.85655472 5.15195251,2.43276104 Z" id="Path"></path>
                        <path d="M0.154624573,2.19173444 C0.416550369,1.83120318 0.921197297,1.75131823 1.28172855,2.01324403 L2.87668397,3.17205991 C3.23721523,3.43398571 3.31718086,3.93863264 3.05517438,4.29916389 C2.79324858,4.65969515 2.28860165,4.73958009 1.9280704,4.4776543 L0.33311498,3.31883842 C-0.0273355838,3.05691262 -0.107301223,2.55226569 0.154624573,2.19173444 Z" id="Path"></path>
                        <path d="M6.68695387,8.41654703 L7.29617745,10.2915032 C7.43391847,10.7152969 7.20192935,11.1705604 6.77813568,11.3083014 C6.35426131,11.4460424 5.89907849,11.2140533 5.76133748,10.7902596 L5.15211389,8.91530345 C5.01437288,8.49150977 5.24636199,8.03624627 5.67015567,7.89850525 C6.09394935,7.76076424 6.54921285,7.99275335 6.68695387,8.41654703 Z" id="Path"></path>
                        <path d="M0.154140422,9.15616867 C-0.107785374,8.79563741 -0.027819735,8.29099049 0.332630829,8.02906469 L1.92758625,6.87024881 C2.2881175,6.60832301 2.79276443,6.68820796 3.05469023,7.04873921 C3.31661602,7.40927047 3.23665038,7.9139174 2.87619982,8.17584319 L1.2812444,9.33465908 C0.920713146,9.59658487 0.416066218,9.51669993 0.154140422,9.15616867 Z" id="Path"></path>
                    </g>
                    <g id="Group-35" transform="translate(0.000000, 46.000000)" stroke="#FFFFFF" stroke-width="0.5">
                        <path d="M3.22445713,6.3308152 L0.65890327,5.49791376 C0.158056196,5.33503356 -0.115922031,4.79689951 0.0470535311,4.29605244 C0.20993373,3.79520536 0.748067782,3.52122714 1.24891486,3.6842027 L3.81446871,4.51710414 C4.31531579,4.67998433 4.58929401,5.21811839 4.42631845,5.71896546 C4.26343825,6.21981254 3.7253042,6.49379076 3.22445713,6.3308152 L3.22445713,6.3308152 Z" id="Path"></path>
                        <path d="M12.6351753,8.3861764 C12.4722951,8.88702347 11.9341611,9.1610017 11.433314,8.99802614 L8.86776012,8.1651247 C8.36691305,8.0022445 8.09293482,7.46411045 8.25591038,6.96326337 C8.41879058,6.4624163 8.95692463,6.18843807 9.45777171,6.35141363 L12.0233256,7.18431507 C12.5241726,7.34729063 12.7980555,7.88532932 12.6351753,8.3861764 Z" id="Path"></path>
                        <path d="M8.99802614,1.24891486 L8.1651247,3.81446871 C8.0022445,4.31531579 7.46411045,4.58929401 6.96326337,4.42631845 C6.4624163,4.26334289 6.18843807,3.7253042 6.35141363,3.22445713 L7.18431507,0.65890327 C7.34719527,0.158056196 7.88532932,-0.115922031 8.3861764,0.0470535311 C8.88702347,0.210029093 9.1610017,0.748067782 8.99802614,1.24891486 Z" id="Path"></path>
                        <path d="M6.3308152,9.45777171 L5.49791376,12.0233256 C5.33503356,12.5241726 4.79689951,12.7981509 4.29605244,12.6351753 C3.79520536,12.4721997 3.52122714,11.9341611 3.6842027,11.433314 L4.51710414,8.86776012 C4.67998433,8.36691305 5.21811839,8.09293482 5.71896546,8.25591038 C6.21981254,8.41888594 6.49379076,8.95682927 6.3308152,9.45777171 Z" id="Path"></path>
                    </g>
                    <g id="Group-35" transform="translate(86.500000, 51.500000) rotate(40.000000) translate(-86.500000, -51.500000) translate(80.000000, 45.000000)" stroke="#FFFFFF" stroke-width="0.5">
                        <path d="M3.22445713,6.3308152 L0.65890327,5.49791376 C0.158056196,5.33503356 -0.115922031,4.79689951 0.0470535311,4.29605244 C0.20993373,3.79520536 0.748067782,3.52122714 1.24891486,3.6842027 L3.81446871,4.51710414 C4.31531579,4.67998433 4.58929401,5.21811839 4.42631845,5.71896546 C4.26343825,6.21981254 3.7253042,6.49379076 3.22445713,6.3308152 L3.22445713,6.3308152 Z" id="Path"></path>
                        <path d="M12.6351753,8.3861764 C12.4722951,8.88702347 11.9341611,9.1610017 11.433314,8.99802614 L8.86776012,8.1651247 C8.36691305,8.0022445 8.09293482,7.46411045 8.25591038,6.96326337 C8.41879058,6.4624163 8.95692463,6.18843807 9.45777171,6.35141363 L12.0233256,7.18431507 C12.5241726,7.34729063 12.7980555,7.88532932 12.6351753,8.3861764 Z" id="Path"></path>
                        <path d="M8.99802614,1.24891486 L8.1651247,3.81446871 C8.0022445,4.31531579 7.46411045,4.58929401 6.96326337,4.42631845 C6.4624163,4.26334289 6.18843807,3.7253042 6.35141363,3.22445713 L7.18431507,0.65890327 C7.34719527,0.158056196 7.88532932,-0.115922031 8.3861764,0.0470535311 C8.88702347,0.210029093 9.1610017,0.748067782 8.99802614,1.24891486 Z" id="Path"></path>
                        <path d="M6.3308152,9.45777171 L5.49791376,12.0233256 C5.33503356,12.5241726 4.79689951,12.7981509 4.29605244,12.6351753 C3.79520536,12.4721997 3.52122714,11.9341611 3.6842027,11.433314 L4.51710414,8.86776012 C4.67998433,8.36691305 5.21811839,8.09293482 5.71896546,8.25591038 C6.21981254,8.41888594 6.49379076,8.95682927 6.3308152,9.45777171 Z" id="Path"></path>
                    </g>
                    <g id="shop" transform="translate(13.000000, 17.000000)">
                        <path d="M36.2000391,10.4439844 L23.7999609,10.4439844 C22.6953516,10.4439844 21.7999219,11.3392969 21.7999219,12.4440234 L21.7999219,16.5773438 C21.7999219,21.0986719 25.4785547,24.7773047 29.9998828,24.7773047 C34.5212109,24.7773047 38.1998437,21.0986719 38.1998437,16.5773438 L38.1998437,12.4440234 C38.1998437,11.3392969 37.3046484,10.4439844 36.2000391,10.4439844 Z M34.2,16.5772266 C34.2,18.8539453 32.2767187,20.7772266 30,20.7772266 C27.7232812,20.7772266 25.8,18.8539453 25.8,16.5772266 L25.8,14.4439453 L25.8,14.4439453 L34.2,14.4439453 L34.2,16.5772266 Z" id="Shape"></path>
                        <path d="M23.7999609,10.4439844 L11.4,10.4439844 C10.2953906,10.4439844 9.39996094,11.3392969 9.39996094,12.4440234 L9.39996094,16.5773438 C9.39996094,21.0986719 13.0785937,24.7773047 17.5999219,24.7773047 C22.12125,24.7773047 25.7998828,21.0986719 25.7998828,16.5773438 L25.7998828,12.4440234 C25.7998828,11.3392969 24.9046875,10.4439844 23.7999609,10.4439844 Z M21.8000391,16.5772266 C21.8000391,18.8539453 19.8767578,20.7772266 17.6000391,20.7772266 C15.3233203,20.7772266 13.4000391,18.8539453 13.4000391,16.5772266 L13.4000391,14.4439453 L13.4000391,14.4439453 L21.8000391,14.4439453 L21.8000391,16.5772266 Z" id="Shape"></path>
                        <path d="M11.3333203,10.3773047 L2.00003906,10.3773047 C0.8953125,10.3773047 0,11.2726172 0,12.3772266 L0,15.5105859 C0,19.1866406 2.990625,22.1772656 6.66667969,22.1772656 C10.3427344,22.1772656 13.3333594,19.1866406 13.3333594,15.5105859 L13.3333594,12.3772266 C13.3333594,11.2726172 12.4380469,10.3773047 11.3333203,10.3773047 Z M9.33328125,15.5105859 C9.33328125,17.0058984 8.16199219,18.1773047 6.6665625,18.1773047 C5.17125,18.1773047 3.99984375,17.0060156 3.99984375,15.5105859 L3.99984375,14.3772656 L9.33316406,14.3772656 L9.33316406,15.5105859 L9.33328125,15.5105859 Z" id="Shape"></path>
                        <path d="M57.9999609,10.3773047 L48.6666797,10.3773047 C47.5620703,10.3773047 46.6666406,11.2726172 46.6666406,12.3773438 L46.6666406,15.5107031 C46.6666406,19.1867578 49.6572656,22.1773828 53.3333203,22.1773828 C57.009375,22.1773828 60,19.1866406 60,15.5105859 L60,12.3772266 C60,11.2726172 59.1046875,10.3773047 57.9999609,10.3773047 Z M56.0000391,15.5105859 C56.0000391,17.0058984 54.82875,18.1773047 53.3333203,18.1773047 C51.8380078,18.1773047 50.6666016,17.0060156 50.6666016,15.5105859 L50.6666016,14.3772656 L55.9999219,14.3772656 L55.9999219,15.5105859 L56.0000391,15.5105859 Z" id="Shape"></path>
                        <path d="M48.6666797,10.4439844 L36.2667188,10.4439844 C35.1619922,10.4439844 34.2666797,11.3392969 34.2666797,12.4440234 L34.2666797,16.5773438 C34.2666797,21.0986719 37.9453125,24.7773047 42.4666406,24.7773047 C46.9879688,24.7773047 50.6666016,21.0986719 50.6666016,16.5773438 L50.6666016,12.4440234 C50.6666016,11.3392969 49.7712891,10.4439844 48.6666797,10.4439844 Z M46.6666406,16.5772266 C46.6666406,18.8539453 44.7433594,20.7772266 42.4666406,20.7772266 C40.1899219,20.7772266 38.2666406,18.8539453 38.2666406,16.5772266 L38.2666406,14.4439453 L38.2666406,14.4439453 L46.6666406,14.4439453 L46.6666406,16.5772266 L46.6666406,16.5772266 Z" id="Shape"></path>
                        <path d="M51.8000391,21.2438672 L51.8000391,45.6438281 L8.19996094,45.6438281 L8.19996094,21.2438672 L4.2,21.2438672 L4.2,47.6438672 C4.2,48.7484766 5.0953125,49.6439063 6.20003906,49.6439063 L53.8000781,49.6439063 C54.9048047,49.6439063 55.8001172,48.7492969 55.8001172,47.6438672 L55.8001172,21.2438672 L51.8000391,21.2438672 Z" id="Path"></path>
                        <path d="M45.2667187,28.310625 L33.6,28.310625 C32.4952734,28.310625 31.5999609,29.2059375 31.5999609,30.3106641 L31.5999609,47.5773047 C31.5999609,48.6820313 32.4952734,49.5773438 33.6,49.5773438 L45.2667187,49.5773438 C46.3720312,49.5773438 47.2667578,48.6820313 47.2667578,47.5773047 L47.2667578,30.3105469 C47.2667578,29.2059375 46.3713281,28.310625 45.2667187,28.310625 Z M43.2666797,45.5772656 L35.6000391,45.5772656 L35.6000391,32.3105859 L43.2666797,32.3105859 L43.2666797,45.5772656 L43.2666797,45.5772656 Z" id="Shape"></path>
                        <path d="M25.8,28.310625 L14.7999609,28.310625 C13.6953516,28.310625 12.7999219,29.2059375 12.7999219,30.3106641 L12.7999219,38.8440234 C12.7999219,39.9486328 13.6952344,40.8440625 14.7999609,40.8440625 L25.8,40.8440625 C26.9046094,40.8440625 27.8000391,39.94875 27.8000391,38.8440234 L27.8000391,30.3105469 C27.8000391,29.2059375 26.9046094,28.310625 25.8,28.310625 Z M23.7999609,36.8439844 L16.8,36.8439844 L16.8,32.3107031 L23.7999609,32.3107031 L23.7999609,36.8439844 L23.7999609,36.8439844 Z" id="Shape"></path>
                        <path d="M59.7280078,11.4359766 L53.6613281,1.0359375 C53.3026172,0.421992188 52.6446094,0.0439453125 51.9332813,0.0439453125 L9.26671875,0.0439453125 C8.61339844,0.0439453125 8.00132813,0.362578125 7.62738281,0.89859375 L0.360703125,11.2986328 C-0.0659765625,11.91 -0.118007812,12.7073437 0.226757813,13.3686328 C0.570703125,14.0293359 1.25472656,14.4439453 2.00003906,14.4439453 L58.0000781,14.4439453 C58.7160938,14.4439453 59.3780859,14.0613281 59.7346875,13.4398828 C60.0912891,12.8185547 60.0887109,12.0546094 59.7280078,11.4359766 Z M5.83734375,10.4439844 L10.3086328,4.04402344 L50.7840234,4.04402344 L54.5179688,10.4439844 L5.83734375,10.4439844 Z" id="Shape"></path>
                        <polygon id="Rectangle" transform="translate(25.335166, 7.241794) rotate(-73.567458) translate(-25.335166, -7.241794) " points="19.9132815 5.24159955 30.7570498 5.24159955 30.7570498 9.24198897 19.9132815 9.24198897"></polygon>
                        <polygon id="Rectangle" transform="translate(34.668448, 7.244299) rotate(-16.427047) translate(-34.668448, -7.244299) " points="32.6683688 1.82274404 36.6685279 1.82274404 36.6685279 12.6658541 32.6683688 12.6658541"></polygon>
                        <polygon id="Rectangle" transform="translate(46.063695, 7.243456) rotate(-26.565051) translate(-46.063695, -7.243456) " points="44.0638338 1.4301363 48.0635559 1.4301363 48.0635559 13.056775 44.0638338 13.056775"></polygon>
                        <polygon id="Rectangle" transform="translate(14.465588, 7.243951) rotate(-58.928153) translate(-14.465588, -7.243951) " points="8.39489516 5.24407756 20.5362802 5.24407756 20.5362802 9.24382423 8.39489516 9.24382423"></polygon>
                    </g>
                </g>
            </g>
        </g>
    </g>
</svg>