<?xml version="1.0" encoding="UTF-8"?>
<svg width="80px" height="50px" viewBox="0 0 80 50" version="1.1" xmlns="http://www.w3.org/2000/svg" xmlns:xlink="http://www.w3.org/1999/xlink">
    <!-- Generator: sketchtool 63.1 (101010) - https://sketch.com -->
    <title>DA5EEDDB-4DCD-4B74-B303-66CE409AA38B</title>
    <desc>Created with sketchtool.</desc>
    <g id="Page-1" stroke="none" stroke-width="1" fill="none" fill-rule="evenodd">
        <g id="Covid---update" transform="translate(-165.000000, -2052.000000)" fill="#38B2AC" fill-rule="nonzero">
            <g id="Group-38" transform="translate(165.000000, 1194.000000)">
                <g id="Group-32" transform="translate(0.000000, 848.000000)">
                    <g id="Support-Local" transform="translate(0.000000, 10.000000)">
                        <path d="M63.1667187,34.2828125 C61.5967187,31.0095312 55.98,26.4660938 50.5534375,22.0760938 C47.5267188,19.629375 44.6667187,17.3160938 42.8434375,15.4928125 C42.3867188,15.0328125 41.7034375,14.8860938 41.1001563,15.1028125 C39.976875,15.5095313 39.2834375,15.8228125 38.736875,16.0660938 C37.9035938,16.439375 37.6235938,16.5660937 36.5001563,16.679375 C36.0034375,16.729375 35.556875,16.9960938 35.2801563,17.409375 C32.9234375,20.9326563 30.4834375,20.6326562 28.8534375,20.0860937 C28.3334375,19.9128125 28.2401563,19.689375 28.1901563,19.4760938 C27.8401562,18.0128125 29.596875,14.6060938 31.8734375,12.329375 C37.2901563,6.909375 40.0834375,5.55265625 45.9834375,8.189375 C52.6767187,11.1826563 59.3834375,13.5260937 59.4501563,13.549375 C60.326875,13.8526562 61.2701563,13.3926563 61.5734375,12.5226562 C61.8734375,11.6526562 61.4167188,10.7026563 60.5467188,10.399375 C60.48,10.3760938 53.9067188,8.079375 47.3467188,5.14265625 C39.7034375,1.7259375 35.51,3.9759375 29.52,9.969375 C27.24,12.249375 24.1432813,16.8626563 24.9432813,20.2460937 C25.2865625,21.6860937 26.3,22.7528125 27.8065625,23.249375 C31.5832812,24.4960937 35.0298437,23.3026562 37.5965625,19.8960937 C38.6565625,19.7328125 39.2332813,19.4928125 40.0998438,19.1028125 C40.413125,18.9628125 40.7798437,18.7995312 41.2665625,18.6028125 C43.1732812,20.3928125 45.7465625,22.4760937 48.4565625,24.6660937 C53.3565625,28.629375 58.9132813,33.1228125 60.1632813,35.7228125 C60.78,37.0060937 60.1165625,37.8428125 59.6665625,38.2260937 C59.0065625,38.7928125 58.1032813,38.9728125 57.6132812,38.629375 C57.0732813,38.259375 56.37,38.2360938 55.8132813,38.569375 C55.2532813,38.9026562 54.94,39.5326562 55.01,40.179375 C55.1232813,41.239375 54.1532812,41.8460937 53.7332813,42.0560937 C52.6665625,42.5960937 51.5532813,42.5028125 51.1365625,42.1160937 C50.6698438,41.6828125 49.9998438,41.5560937 49.4065625,41.7760938 C48.8132813,41.999375 48.3998438,42.5460937 48.3398438,43.179375 C48.2398438,44.2726562 47.4298438,45.3226562 46.373125,45.7326562 C45.863125,45.9259375 45.123125,46.0426562 44.4598438,45.4359375 C44.0465625,45.0626562 43.473125,44.9192187 42.9365625,45.0492187 C42.3932813,45.1825 41.9565625,45.5759375 41.7665625,46.0992187 C41.7032813,46.2659375 41.5598438,46.6659375 39.9998438,46.6659375 C38.8898438,46.6659375 36.893125,45.9159375 35.9165625,45.2692187 C34.7465625,44.4992187 27.4098438,39.0259375 21.0732813,33.7192187 C20.1832813,32.9692187 18.6432813,31.3625 17.2832813,29.9425 C16.0765625,28.6825 14.9732813,27.5392187 14.4065625,27.0592187 C13.6965625,26.4592188 12.6465625,26.5492188 12.0565625,27.2559375 C11.4632813,27.9592187 11.5498438,29.0126563 12.2532813,29.6059375 C12.77,30.0426563 13.77,31.0992188 14.8732813,32.2492188 C16.36,33.8025 17.8965625,35.4092188 18.93,36.2759375 C25.1367188,41.4726563 32.5967188,47.0826563 34.0832813,48.0592188 C35.31,48.8659375 37.9532813,49.9992188 40,49.9992188 C41.6432813,49.9992188 42.9067188,49.6225 43.7832813,48.8859375 C44.9565625,49.3426563 46.29,49.3459375 47.5732813,48.8459375 C49.09,48.2592188 50.3365625,47.0759375 51.0432813,45.6426563 C52.3565625,45.9226563 53.86,45.7259375 55.2265625,45.039375 C56.5632813,44.3660938 57.5298438,43.3360938 58.0098438,42.1326563 C59.3365625,42.2026563 60.703125,41.7326563 61.833125,40.7626563 C63.7467187,39.1260937 64.2732812,36.5795312 63.1667187,34.2828125 Z" id="Path"></path>
                        <path d="M33.3332812,6.66609375 L18.3332813,6.66609375 C17.4132813,6.66609375 16.6665625,7.4128125 16.6665625,8.3328125 C16.6665625,9.2528125 17.4132813,9.99953125 18.3332813,9.99953125 L33.3332812,9.99953125 C34.2532813,9.99953125 35,9.2528125 35,8.3328125 C35,7.4128125 34.2532813,6.66609375 33.3332812,6.66609375 Z" id="Path"></path>
                        <path d="M68.05,30.7360938 C67.5332813,29.9728125 66.5,29.7628125 65.7367188,30.2828125 L60.8634375,33.5560938 C60.1001562,34.069375 59.8967187,35.1060938 60.4101562,35.869375 C60.7334375,36.3460938 61.2601562,36.6060937 61.796875,36.6060937 C62.1135937,36.6060937 62.436875,36.5160937 62.7235937,36.3228125 L67.596875,33.0495313 C68.36,32.5360938 68.5632813,31.4995313 68.05,30.7360938 Z" id="Path"></path>
                        <path d="M57.7032812,38.6895313 C56.51,37.7495312 51.1732812,32.28625 47.8732812,28.84625 C47.2365625,28.1795313 46.18,28.15625 45.5165625,28.79625 C44.8498437,29.4329687 44.8298437,30.4895312 45.4665625,31.1529688 C46.3232812,32.04625 53.8798437,39.9229688 55.6365625,41.3096875 C55.9398437,41.5496875 56.3065625,41.6664063 56.6665625,41.6664063 C57.1565625,41.6664063 57.6465625,41.4464062 57.9798437,41.0296875 C58.55,40.3095312 58.4267187,39.2595313 57.7032812,38.6895313 Z" id="Path"></path>
                        <path d="M51.0432812,42.0328125 C49.0465625,40.4360938 44.03,35.1060937 42.8965625,33.8728125 C42.2698437,33.1928125 41.2198437,33.1528125 40.5398437,33.7728125 C39.863125,34.3960938 39.8165625,35.4528125 40.4398437,36.1295313 C40.4998437,36.1928125 46.4865625,42.65625 48.9598437,44.63625 C49.2665625,44.8795313 49.6365625,44.9995313 49.9998437,44.9995313 C50.4865625,44.9995313 50.973125,44.7828125 51.303125,44.37625 C51.8767188,43.6560937 51.76,42.6060937 51.0432812,42.0328125 Z" id="Path"></path>
                        <path d="M44.41,45.3895312 C42.0332813,43.38625 37.17,38.2095312 36.22,37.1928125 C35.59,36.5195312 34.5332812,36.4828125 33.8632812,37.1128125 C33.19,37.7428125 33.1565625,38.7960938 33.7832812,39.4695313 C35.15,40.9328125 39.8032812,45.86625 42.26,47.9395313 C42.5732813,48.2028125 42.9532813,48.3328125 43.3332812,48.3328125 C43.8065625,48.3328125 44.28,48.1295312 44.61,47.7395312 C45.2032813,47.0328125 45.1132813,45.9828125 44.41,45.3895312 Z" id="Path"></path>
                        <path d="M19.48,3.78953125 C16.6232812,1.0828125 5.2,0.20609375 1.76671875,0.0028125 C1.2934375,-0.02046875 0.85671875,0.13609375 0.5234375,0.4528125 C0.19,0.76609375 0,1.20609375 0,1.66609375 L0,31.6660938 C0,32.5860938 0.74671875,33.3328125 1.66671875,33.3328125 L11.6667187,33.3328125 C12.3867188,33.3328125 13.0267188,32.8695313 13.25,32.1828125 C13.4932812,31.4360937 19.2367187,13.8095312 19.9932812,5.1428125 C20.0367188,4.63609375 19.85,4.13609375 19.48,3.78953125 Z M10.45,29.9995313 L3.33328125,29.9995313 L3.33328125,3.4528125 C8.69,3.87609375 14.47,4.79609375 16.57,5.81609375 C15.6867188,13.1160938 11.69,26.0860937 10.45,29.9995313 Z" id="Shape"></path>
                        <path d="M78.3332812,3.3328125 C65.2465625,3.3328125 57.9865625,6.6828125 57.6832813,6.8228125 C57.25,7.02609375 56.9265625,7.4028125 56.7932812,7.85953125 C56.66,8.31625 56.7265625,8.80625 56.9765625,9.2128125 C59.0365625,12.5295312 65.4865625,30.9495312 66.7265625,35.4428125 C66.9265625,36.1660937 67.5832812,36.6660937 68.3332812,36.6660937 L78.3332812,36.6660937 C79.2532812,36.6660937 80,35.919375 80,34.999375 L80,4.999375 C80,4.07609375 79.2532812,3.3328125 78.3332812,3.3328125 Z M76.6667188,33.3328125 L69.58,33.3328125 C68,28.1860937 63.3332812,14.7660937 60.73,9.21953125 C63.2732812,8.35625 68.7367187,6.8728125 76.6667188,6.68625 L76.6667188,33.3328125 Z" id="Shape"></path>
                    </g>
                </g>
            </g>
        </g>
    </g>
</svg>