<?xml version="1.0" encoding="UTF-8"?>
<svg width="60px" height="60px" viewBox="0 0 60 60" version="1.1" xmlns="http://www.w3.org/2000/svg" xmlns:xlink="http://www.w3.org/1999/xlink">
    <!-- Generator: sketchtool 63.1 (101010) - https://sketch.com -->
    <title>B8F70CC6-F398-469A-88EE-F272F6CF4D42</title>
    <desc>Created with sketchtool.</desc>
    <g id="Page-1" stroke="none" stroke-width="1" fill="none" fill-rule="evenodd">
        <g id="Covid" transform="translate(-595.000000, -853.000000)" fill="#38B2AC" fill-rule="nonzero" stroke="#38B2AC">
            <g id="Group-20" transform="translate(165.000000, 723.000000)">
                <g id="Group-17" transform="translate(380.000000, 80.000000)">
                    <g id="Group-10">
                        <g id="ico-veg" transform="translate(51.000000, 51.000000)">
                            <path d="M45.9539844,0 C46.2027795,0 46.4223115,0.0975391424 46.5794217,0.260072659 C46.7517083,0.438306341 46.8483498,0.687804153 46.8483203,0.959726562 L46.8483203,0.959726562 L46.8483203,9.70676767 L53.589748,3.05286404 C53.7771758,2.86546492 54.0228353,2.77177734 54.2684814,2.77177734 C54.5140884,2.77177734 54.7597011,2.86543812 54.9470729,3.05280991 C55.1344858,3.24022277 55.2281934,3.48585931 55.2281934,3.73148926 C55.2281934,3.97708002 55.1345126,4.22266974 54.9424658,4.41471799 L54.9424658,4.41471799 L48.293125,11.1515625 L57.0401562,11.1515625 C57.3120591,11.1515625 57.5616314,11.2482308 57.7399128,11.4205637 C57.9024549,11.5776826 58,11.797216 58,12.0460156 C58,12.2914742 57.9045308,12.5070054 57.7442689,12.660856 C57.5650812,12.8328754 57.313588,12.9273437 57.0402734,12.9273437 L57.0402734,12.9273437 L48.0867426,12.9273437 C50.0000575,15.2386675 51.2785583,18.0643465 51.7306065,20.776636 C52.3009879,24.1978644 51.5035568,27.2542218 49.4043282,29.3534504 C45.4093859,33.3485091 31.0615825,43.5687457 26.2758956,46.7738313 C21.2610363,50.1326615 11.1505869,56.7110407 5.19386116,57.8373002 C3.70091581,58.1196465 2.0354294,58.1733437 0.931093441,57.0687158 C-0.00449580562,56.1332239 -0.18937013,54.6681314 0.162591132,52.8060937 C1.28596124,46.8646244 7.83681621,36.7845714 11.2260613,31.7240898 C18.3052515,21.1541923 26.6381654,10.6038231 28.6465958,8.5956256 C30.7455171,6.49649138 33.8022469,5.69945463 37.2234052,6.26940035 C39.9214527,6.71909824 42.5328715,7.99151553 44.9419922,9.88721359 L44.9419922,9.88721359 L44.9419922,0.959726562 C44.9419922,0.699856326 45.0579932,0.467477081 45.2326407,0.29736648 C45.4198665,0.115004238 45.6765541,0 45.9539844,0 L45.9539844,0 Z M30.0035963,9.95304947 C29.4310422,10.5254652 28.2961034,11.85125 26.8033788,13.7100142 L31.3893385,18.295974 C31.5767514,18.4833868 31.670459,18.7290234 31.670459,18.9746533 C31.670459,19.2202441 31.5767782,19.4658338 31.3893927,19.6531906 C31.2018777,19.8408204 30.9562223,19.9344531 30.7108203,19.9344531 C30.4653629,19.9344531 30.2197419,19.840742 30.0324104,19.6533531 L25.6012757,15.2222184 C23.2618478,18.1943875 20.2983689,22.1177183 17.2766101,26.3553414 L23.0748774,32.1537394 C23.2622983,32.3411603 23.3560059,32.5867968 23.3560059,32.8324268 C23.3560059,33.0780175 23.2623251,33.3236072 23.0749395,33.5109641 C22.8874291,33.698532 22.6417227,33.7922266 22.39625,33.7922266 C22.1506818,33.7922266 21.9050723,33.6983013 21.7176235,33.51091 L16.1511672,27.9444536 C15.1542118,29.3626008 14.1582413,30.8059218 13.1840392,32.2518123 C0.219019856,51.493662 1.95520547,55.1160253 2.59190666,55.9144176 C2.85542505,56.0319155 5.76443732,57.4680365 20.0821378,48.5045649 L16.1746458,44.5970729 C15.987233,44.40966 15.8935254,44.1640235 15.8935254,43.9183936 C15.8935254,43.6728028 15.9872062,43.4272131 16.1745917,43.2398562 C16.3620195,43.0524571 16.607679,42.9587695 16.8533252,42.9587695 C17.0989322,42.9587695 17.3445449,43.0524303 17.5319167,43.2398021 L21.7439218,47.4518073 C22.9948715,46.6495583 24.3270178,45.7739329 25.7484356,44.8161861 C29.4765372,42.3044127 33.1871158,39.6491808 36.4900466,37.1975128 L32.8036693,33.5111354 C32.6162564,33.3237225 32.5225488,33.078086 32.5225488,32.8324561 C32.5225488,32.5868653 32.6162296,32.3412756 32.8036151,32.1539187 C32.991043,31.9665196 33.2367024,31.872832 33.4823486,31.872832 C33.7279556,31.872832 33.9735683,31.9664928 34.1609401,32.1538646 L38.0436203,36.0365448 C43.0999437,32.2349091 46.9567739,29.0863316 48.0468699,27.9964843 C49.6362317,26.4069886 50.3172726,23.972823 49.8372558,21.092452 C49.332528,18.0642727 47.6277138,15.0757266 45.2763889,12.7244017 C42.9240854,10.3720983 39.9345317,8.66736 36.9076869,8.16286499 C34.027381,7.68297159 31.5929742,8.36367157 30.0035963,9.95304947 Z" id="Shape"></path>
                        </g>
                    </g>
                </g>
            </g>
        </g>
    </g>
</svg>