<svg width="60" height="60" version="1.1" viewBox="0 0 100 100" xmlns="http://www.w3.org/2000/svg">
 <g transform="matrix(.010204 0 0 -.010204 -1.0204 51.123)">
  <path d="m1174.9 4838.1c-116.9-82.1-116.9-144.3 5-393.1 126.9-263.7 199.1-467.8 251.3-714.1 54.7-263.7 44.8-278.7-47.3-67.2-107 248.8-273.7 480.2-475.2 659.4-181.6 164.2-539.9 380.7-629.5 380.7-82.1 0-179.2-107-179.2-199.1 0-94.5 62.2-156.7 276.2-273.7 243.8-134.4 495.1-398.1 614.6-649.4 107-223.9 179.2-510.1 179.2-721.6 0-112-12.4-141.8-84.6-221.4-298.6-330.9-445.4-885.8-445.4-1691.9 0-527.5 29.9-878.3 134.4-1492.9 64.7-398.1 216.5-1144.6 236.4-1167 5-5 34.8 24.9 69.7 62.2 67.2 79.6 49.8 79.6 756.4 64.7 313.5-5 333.4-7.5 390.6-67.2 84.6-82.1 79.6-174.2-12.4-263.7l-74.6-74.6-495.1 7.5c-440.4 7.5-500.1 12.4-544.9 54.7-49.8 42.3-47.3 29.8 22.4-236.4 166.7-637 562.3-1905.9 739-2371.2l47.3-119.4 131.9 318.5c577.3 1403.3 1040 2906.2 1231.6 3991 77.1 445.4 77.1 442.9 10 383.2-49.8-44.8-97-47.3-661.9-47.3h-609.6l-59.7 69.7c-84.6 99.5-77.1 196.6 22.4 281.1l79.6 67.2 574.8-14.9c350.8-7.5 597.2-24.9 629.5-39.8 27.4-17.4 59.7-59.7 69.7-97 17.4-64.7 17.4-62.2 34.8 32.3 12.4 54.7 27.4 273.7 37.3 485.2 37.3 813.6-124.4 1465.5-447.9 1833.8-102 112-114.5 141.8-114.5 243.8 0 201.5 72.2 490.2 179.2 706.6 121.9 253.8 370.7 515.1 614.6 649.4 298.6 161.7 368.3 283.6 238.9 410.5-89.6 92.1-174.2 79.6-420.5-67.2-530-316-841-748.9-953-1336.1-29.9-154.3-54.7-226.4-79.6-226.4-27.4 0-29.9 29.9-17.4 144.3 37.3 340.9 47.3 915.6 14.9 1052.5-64.7 283.7-243.8 505.1-515.1 639.5-112 54.7-136.8 59.7-201.5 32.3-169.2-69.7-156.8-286.1 19.9-375.7 52.3-27.4 134.4-94.5 181.6-149.3 144.3-169.2 169.2-340.9 131.9-925.6-17.4-273.7-24.9-316-64.7-325.9-62.2-14.9-74.6 0-74.6 97 0 171.7-77.1 661.9-139.3 870.9-92.1 326-313.5 773.8-395.6 806.2-90 34.6-117.3 32.2-182-15.1zm2112.4-3267c89.6-89.6 92.1-181.6 10-263.7l-59.7-62.2h-607.1c-574.8 0-607.1 2.5-659.4 49.8-29.9 27.4-59.7 77.1-69.7 109.5-14.9 64.7 42.3 201.6 94.6 221.5 17.4 7.5 298.6 14.9 624.5 14.9l594.7 2.5z"/>
  <path d="m7338 3977.2c-360.8-393.1-870.8-1535.2-957.9-2142.3-7.5-64.7-22.4-116.9-32.4-112-7.5 5-99.5 49.8-201.5 99.5-253.8 124.4-447.9 169.2-726.5 169.2-649.4 0-1281.4-355.8-1602.4-900.7-271.2-467.7-398.1-1112.2-335.9-1736.7 57.2-572.3 181.6-1022.6 413-1510.3 395.6-828.5 923.1-1318.7 1552.6-1443.1 174.2-34.8 238.9-37.3 403.1-12.4 216.5 29.9 500.1 149.3 696.7 291.1 67.2 47.3 126.9 87.1 134.4 87.1 5 0 94.6-54.7 199.1-121.9 455.3-298.6 898.2-348.3 1361-154.2 724 306 1363.5 1273.9 1587.4 2403.5 67.2 340.9 92.1 910.6 52.2 1214.2-129.4 967.9-654.4 1617.3-1480.4 1831.3-241.3 62.2-609.6 69.7-823.6 14.9-216.5-54.7-525-211.5-691.7-345.9l-141.8-114.5v117c0 124.4 49.8 360.8 114.4 562.3 37.3 109.5 44.8 116.9 82.1 84.6 22.4-19.9 89.6-62.2 151.8-94.6 97.1-52.2 144.3-59.7 373.2-57.2 214 2.5 298.6 14.9 472.7 72.2 251.3 79.6 457.8 171.7 739 325.9l206.5 112-154.3 199c-323.5 420.5-676.8 679.3-1015.2 746.4-89.6 17.4-166.7 34.8-171.7 37.3-5 5 27.4 49.8 69.7 102 94.5 114.4 102 223.9 19.9 301.1-86.9 82.2-203.9 72.2-293.5-24.8zm510.1-865.9c67.2-32.3 196.5-129.4 286.1-214l164.2-156.7-186.6-84.6c-440.4-206.5-873.3-223.9-970.4-44.8-84.6 159.3 32.3 428 236.4 547.4 79.7 44.8 333.4 19.9 470.3-47.3z"/>
 </g>
</svg>
